<svg id="Filled_Expand" height="512" viewBox="0 0 64 64" width="512" xmlns="http://www.w3.org/2000/svg" data-name="Filled Expand"><path d="m19 9h42v46h-42z" fill="#f9fafd"/><path d="m19 9h42v2h-42z" fill="#ebeff0"/><path d="m21 9h40v46h-40z" fill="#ebeff0"/><path d="m21 9h40v2h-40z" fill="#dde5e8"/><path d="m31 30h18a6 6 0 0 1 6 6v19a0 0 0 0 1 0 0h-30a0 0 0 0 1 0 0v-19a6 6 0 0 1 6-6z" fill="#575b5e"/><path d="m55 55v-19a5.968 5.968 0 0 0 -.881-3.119 5.968 5.968 0 0 0 -3.119-.881h-19a5 5 0 0 0 -5 5v18z" fill="#4b4d4e"/><path d="m49.231 49.769a9.231 9.231 0 1 1 -18.462 0c0-4.615 2.769-6.461 5.539-8.307 3.185-2.124 3.692-6.462 3.692-6.462s9.231 5.538 9.231 14.769z" fill="#f47987"/><path d="m32.769 51.769a9.173 9.173 0 0 0 1.788 5.443 9.218 9.218 0 0 0 14.674-7.443c0-6.394-4.426-11.012-7.148-13.249-.061.3-.083.48-.083.48s-.507 4.338-3.692 6.462c-2.77 1.846-5.539 3.692-5.539 8.307z" fill="#f06370"/><path d="m45.385 53.615a5.385 5.385 0 1 1 -10.77 0c0-2.692 1.616-3.769 3.231-4.846a5.778 5.778 0 0 0 2.154-3.769s5.385 3.231 5.385 8.615z" fill="#f3be57"/><path d="m43.077 55.923a3.077 3.077 0 0 1 -6.154 0c0-1.538.923-2.154 1.846-2.769a3.3 3.3 0 0 0 1.231-2.154s3.077 1.846 3.077 4.923z" fill="#f6cd7f"/><rect fill="#d3d4d5" height="8" rx="2" width="46" x="17" y="55"/><path d="m63 61v-4h-43a1 1 0 0 0 -1 1v5h42a2 2 0 0 0 2-2z" fill="#c4c5c7"/><rect fill="#d3d4d5" height="8" rx="2" width="46" x="17" y="1"/><path d="m63 7v-4h-43a1 1 0 0 0 -1 1v5h42a2 2 0 0 0 2-2z" fill="#c4c5c7"/><rect fill="#f9fafd" height="6" rx="2" width="10" x="3" y="12"/><path d="m13 16v-2h-7a1 1 0 0 0 -1 1v3h6a2 2 0 0 0 2-2z" fill="#ebeff0"/><path d="m11 42v-24h-6v24a8 8 0 0 0 8 8h6v-6h-6a2 2 0 0 1 -2-2z" fill="#8b8f91"/><path d="m13 44a2 2 0 0 1 -2-2v-24h-4v24a8 8 0 0 0 8 8h4v-6z" fill="#6e7376"/><path d="m5 18h6v2h-6z" fill="#6e7376"/><path d="m7 18h4v2h-4z" fill="#575b5e"/><circle cx="8" cy="31" fill="#829eee" r="7"/><path d="m10 26a7 7 0 0 0 -5.846 10.846 7 7 0 0 0 9.692-9.692 6.963 6.963 0 0 0 -3.846-1.154z" fill="#96aff1"/><rect fill="#829eee" height="11" rx="2" width="24" x="28" y="14"/><path d="m52 23v-7h-21a1 1 0 0 0 -1 1v8h20a2 2 0 0 0 2-2z" fill="#96aff1"/><path d="m64 7v-4a3 3 0 0 0 -3-3h-42a3 3 0 0 0 -3 3v4a3 3 0 0 0 2 2.816v33.184h-5a1 1 0 0 1 -1-1v-4.082a7.982 7.982 0 0 0 0-13.836v-5.266a3 3 0 0 0 2-2.816v-2a3 3 0 0 0 -3-3h-6a3 3 0 0 0 -3 3v2a3 3 0 0 0 2 2.816v5.266a7.982 7.982 0 0 0 0 13.836v4.082a9.01 9.01 0 0 0 9 9h5v3.184a3 3 0 0 0 -2 2.816v4a3 3 0 0 0 3 3h42a3 3 0 0 0 3-3v-4a3 3 0 0 0 -2-2.816v-44.368a3 3 0 0 0 2-2.816zm-60 7a1 1 0 0 1 1-1h6a1 1 0 0 1 1 1v2a1 1 0 0 1 -1 1h-6a1 1 0 0 1 -1-1zm6 5v4.263a7.736 7.736 0 0 0 -4 0v-4.263zm-8 12a6 6 0 1 1 6 6 6.006 6.006 0 0 1 -6-6zm11 18a7.008 7.008 0 0 1 -7-7v-3.263a7.736 7.736 0 0 0 4 0v3.263a3 3 0 0 0 3 3h5v4zm49 12a1 1 0 0 1 -1 1h-42a1 1 0 0 1 -1-1v-4a1 1 0 0 1 1-1h42a1 1 0 0 1 1 1zm-13-32h-18a7.008 7.008 0 0 0 -7 7v18h-4v-44h40v44h-4v-18a7.008 7.008 0 0 0 -7-7zm-8.485 5.143a1 1 0 0 0 -1.508.741c0 .039-.486 3.9-3.254 5.746-2.8 1.869-5.984 3.988-5.984 9.14a10.169 10.169 0 0 0 .923 4.23h-4.692v-18a5.006 5.006 0 0 1 5-5h18a5.006 5.006 0 0 1 5 5v18h-4.692a10.169 10.169 0 0 0 .923-4.23c0-9.687-9.32-15.389-9.716-15.627zm0 10a1 1 0 0 0 -1.508.741 4.823 4.823 0 0 1 -1.715 3.054c-1.638 1.09-3.677 2.449-3.677 5.677 0 .126.019.257.028.385h-.674a8.158 8.158 0 0 1 -1.2-4.23c0-4.082 2.36-5.655 5.093-7.476a9.993 9.993 0 0 0 3.8-5.62c2.385 1.8 7.572 6.466 7.572 13.1a8.158 8.158 0 0 1 -1.2 4.23h-.674c.009-.128.028-.259.028-.385-.003-5.888-5.634-9.333-5.873-9.476zm3.87 9.472a3.729 3.729 0 0 1 -.03.385h-8.71a3.729 3.729 0 0 1 -.03-.385c0-2.157 1.229-2.976 2.786-4.013a5.975 5.975 0 0 0 2.191-2.929c1.446 1.196 3.793 3.646 3.793 6.942zm16.615-45.615h-42a1 1 0 0 1 -1-1v-4a1 1 0 0 1 1-1h42a1 1 0 0 1 1 1v4a1 1 0 0 1 -1 1z"/><path d="m11 32a1 1 0 0 0 0-2h-2v-2a1 1 0 0 0 -2 0v3a1 1 0 0 0 1 1z"/><path d="m50 13h-20a3 3 0 0 0 -3 3v7a3 3 0 0 0 3 3h20a3 3 0 0 0 3-3v-7a3 3 0 0 0 -3-3zm1 10a1 1 0 0 1 -1 1h-20a1 1 0 0 1 -1-1v-7a1 1 0 0 1 1-1h20a1 1 0 0 1 1 1z"/></svg>