<svg id="Capa_1" enable-background="new 0 0 512 512" height="512" viewBox="0 0 512 512" width="512" xmlns="http://www.w3.org/2000/svg"><g><g><path d="m248.658 148.053-21.872-59.997c-.278-.762-.056-1.602.531-2.161 5.283-5.021 8.903-11.903 9.704-19.885 1.571-15.655-8.893-30.298-24.199-33.939-5.221-1.242-10.417-1.121-15.238.116-1.059.272-2.133-.347-2.423-1.401-3.697-13.421-15.989-23.28-30.586-23.28-14.388 0-26.536 9.58-30.421 22.709-.224.756-.846 1.309-1.623 1.442-12.405 2.127-22.956 11.569-25.721 24.835-3.405 16.338 6.736 32.764 22.857 37.078 9.832 2.631 19.796.348 27.319-5.322.989-.746 2.39-.445 2.977.645 5.357 9.936 15.854 16.691 27.933 16.691 3.255 0 6.393-.496 9.349-1.408.676-.208 1.409-.069 1.94.397z" fill="#f1faff"/></g><g><path d="m163.621 46.934c.314 1.139 1.474 1.807 2.618 1.514 5.209-1.336 10.824-1.467 16.466-.125 16.541 3.934 27.848 19.758 26.151 36.675-.793 7.904-4.149 14.805-9.097 20.08l48.898 42.976-21.872-59.997c-.278-.762-.056-1.602.531-2.161 5.283-5.021 8.903-11.903 9.704-19.885 1.571-15.655-8.893-30.298-24.199-33.939-5.221-1.242-10.417-1.121-15.238.116-1.059.272-2.133-.347-2.423-1.401-3.697-13.421-15.989-23.28-30.586-23.28-11.378 0-21.337 6.004-26.934 15.003 12.566 2.636 22.6 12.15 25.981 24.424z" fill="#c7eefb"/></g><g><path d="m374.474 56.962c-4.084-.725-7.958-.086-11.294 1.504-.901.429-1.977.152-2.527-.68-5.677-8.582-15.409-14.246-26.469-14.246-9.741 0-18.454 4.393-24.273 11.303-.602.715-1.629.89-2.452.446-5.125-2.763-11.344-3.588-17.521-1.684-10.08 3.107-16.758 13.045-15.841 23.553.853 9.768 7.581 17.298 16.147 19.852 1.119.334 1.747 1.514 1.347 2.612l-18.168 49.835 49.472-43.48c.531-.467 1.264-.606 1.94-.397 2.956.912 6.094 1.408 9.349 1.408 11.059 0 20.789-5.663 26.467-14.243.555-.838 1.639-1.107 2.547-.676 2.406 1.144 5.091 1.793 7.933 1.793 11.291 0 20.232-10.062 18.346-21.708-1.243-7.674-7.348-13.833-15.003-15.192z" fill="#f1faff"/></g><g><path d="m389.477 72.154c-1.243-7.674-7.348-13.833-15.003-15.192-4.084-.725-7.958-.086-11.294 1.504-.901.429-1.977.152-2.527-.68-2.991-4.522-7.115-8.221-11.959-10.721 1.343 2.353 2.299 4.947 2.746 7.705 2.387 14.741-8.93 27.477-23.221 27.477-3.597 0-6.996-.822-10.041-2.269-1.149-.546-2.521-.206-3.224.855-5.455 8.244-13.87 14.351-23.729 16.819.45.527.622 1.264.365 1.97l-18.168 49.835 49.472-43.48c.531-.467 1.264-.606 1.94-.397 2.956.912 6.094 1.409 9.349 1.409 11.059 0 20.79-5.663 26.467-14.243.555-.838 1.639-1.107 2.547-.676 2.406 1.144 5.091 1.793 7.933 1.793 11.292-.001 20.233-10.063 18.347-21.709z" fill="#c7eefb"/></g><g><path d="m328.672 131.886h-145.343c-5.868 0-11.372 2.83-14.779 7.608-19.912 27.926-86.914 126.111-86.914 182.884 0 52.927 23.582 123.521 60.811 176.375 2.543 3.61 6.699 5.739 11.115 5.739h204.875c4.416 0 8.572-2.129 11.115-5.739 37.229-52.854 60.811-123.449 60.811-176.376 0-56.773-67.002-154.958-86.914-182.884-3.405-4.777-8.909-7.607-14.777-7.607z" fill="#62d8f9"/></g><g><path d="m224.315 183.417h63.37v170.827h-63.37z" fill="#00bef7"/></g><g><path d="m261.756 183.417h25.929v170.827h-25.929z" fill="#09a6ee"/></g><g><path d="m326.568 407.176h-141.136v-46.364c0-8.284 6.716-15 15-15h111.136c8.284 0 15 6.716 15 15z" fill="#00bef7"/></g><g><path d="m311.553 345.812h-31.519c8.293 0 15.015 6.722 15.015 15.015v46.349h31.519v-46.349c0-8.292-6.722-15.015-15.015-15.015z" fill="#09a6ee"/></g><g><path d="m343.45 139.494c-3.407-4.778-8.911-7.608-14.779-7.608h-32.871c27.286 42.014 65.496 108.501 65.496 151.377 0 38.194-12.28 85.588-33.108 128.877-15.669 32.568-48.659 53.238-84.8 53.238h-121.449c6.247 11.639 13.103 22.862 20.508 33.376 2.543 3.61 6.699 5.739 11.115 5.739h204.875c4.416 0 8.572-2.129 11.115-5.739 37.229-52.854 60.811-123.449 60.811-176.376.001-56.774-67-154.958-86.913-182.884z" fill="#00bef7"/></g><g><path d="m183.329 131.886c-5.868 0-11.372 2.83-14.779 7.608-8.127 11.397-24.097 34.499-40.154 61.709h255.209c-16.058-27.211-32.028-50.312-40.154-61.709-3.407-4.778-8.911-7.608-14.779-7.608z" fill="#e0dde2"/></g><g><path d="m90.563 385.567c10.085 38.835 28.222 79.592 51.884 113.186 2.543 3.61 6.699 5.739 11.115 5.739h204.875c4.416 0 8.572-2.129 11.115-5.739 23.663-33.594 41.799-74.351 51.884-113.186z" fill="#e0dde2"/></g><g><path d="m335.845 201.203h47.759c-16.058-27.211-32.028-50.312-40.154-61.709-3.407-4.778-8.911-7.608-14.779-7.608h-32.871c12.633 19.452 27.604 44.144 40.045 69.317z" fill="#c8c1c9"/></g><g><path d="m339.705 385.567c-3.473 8.951-7.318 17.846-11.517 26.572-15.669 32.568-48.659 53.238-84.8 53.238h-121.46c6.247 11.641 13.112 22.86 20.519 33.376 2.543 3.61 6.699 5.739 11.115 5.739h204.875c4.416 0 8.572-2.129 11.115-5.739 23.663-33.594 41.799-74.351 51.884-113.186z" fill="#c8c1c9"/></g><g><circle cx="253.982" cy="445.03" fill="#f0f0f3" r="31.241"/></g><g><path d="m264.264 415.529c1.123 3.221 1.74 6.679 1.74 10.282 0 17.254-13.987 31.241-31.241 31.241-3.604 0-7.061-.618-10.282-1.74 4.252 12.201 15.85 20.959 29.501 20.959 17.254 0 31.241-13.987 31.241-31.241 0-13.651-8.758-25.249-20.959-29.501z" fill="#e0dde2"/></g><g><path d="m349.563 135.135c-4.804-6.735-12.613-10.756-20.892-10.756h-15.343l12.315-10.824c2.799.625 5.66.94 8.54.94 11.707 0 22.656-5.179 30.075-14.048 2.227.613 4.525.922 6.871.922 7.667 0 14.915-3.351 19.888-9.193 4.969-5.839 7.109-13.575 5.869-21.222-1.759-10.863-10.239-19.456-21.101-21.384-5.431-.962-10.905-.23-15.836 2.119-3.743 1.784-5.331 6.264-3.547 10.007 1.785 3.744 6.267 5.331 10.007 3.547 2.117-1.009 4.392-1.308 6.753-.889 4.514.801 8.175 4.502 8.903 9 .542 3.345-.34 6.573-2.483 9.091-2.114 2.485-5.196 3.91-8.453 3.91-1.637 0-3.222-.359-4.705-1.063-4.265-2.035-9.444-.61-12.035 3.31-4.507 6.811-12.061 10.878-20.206 10.878-2.423 0-4.824-.362-7.138-1.075-3.199-.985-6.602-.266-9.108 1.933l-27.354 24.041h-.03l8.09-22.188c.892-2.447.732-5.184-.438-7.51-1.178-2.342-3.299-4.116-5.818-4.866-6.019-1.794-10.263-7.019-10.813-13.31-.614-7.034 3.833-13.648 10.573-15.726 3.969-1.224 8.142-.826 11.747 1.118 3.942 2.124 8.886 1.193 11.758-2.218 4.377-5.198 10.765-8.337 17.526-8.612 4.143-.168 7.365-3.663 7.197-7.806-.169-4.143-3.649-7.371-7.806-7.197-9.542.387-18.62 4.287-25.486 10.838-6.177-2.275-12.911-2.459-19.359-.473-13.455 4.148-22.333 17.345-21.108 31.38.918 10.502 7.045 19.508 16.104 24.219l-8.041 22.058c-.035.096-.059.194-.09.291h-26.723c-.075-.468-.191-.936-.36-1.398l-12.495-34.276c5.327-6.11 8.659-13.776 9.478-21.943 1.949-19.418-10.919-37.471-29.932-41.992-4.534-1.078-9.235-1.34-13.831-.79-6.055-14.338-20.27-23.978-36.151-23.978-16.145 0-30.726 10.109-36.544 24.951-14.436 3.718-25.482 15.191-28.571 30.011-4.239 20.341 8.177 40.486 28.266 45.862 9.827 2.63 20.05 1.383 28.818-3.385 7.347 9.777 18.901 15.653 31.352 15.653 2.868 0 5.717-.313 8.506-.933l13.64 12.219h-26.714c-8.279 0-16.089 4.021-20.891 10.757-20.717 29.053-88.309 128.421-88.309 187.242 0 55.28 24.989 127.897 62.182 180.699 3.936 5.587 10.385 8.923 17.253 8.923h145.355c4.147 0 7.507-3.361 7.507-7.508s-3.361-7.508-7.507-7.508h-145.355c-1.99 0-3.851-.955-4.978-2.555-20.935-29.721-37.817-65.913-48.168-101.356h311.165c-10.35 35.443-27.233 71.635-48.167 101.355-1.128 1.6-2.988 2.556-4.979 2.556h-25.861c-4.147 0-7.508 3.361-7.508 7.508s3.363 7.509 7.51 7.509h25.861c6.866 0 13.316-3.335 17.254-8.923 37.191-52.801 62.18-125.418 62.18-180.699-.001-58.82-67.592-158.189-88.309-187.243zm-151.673-38.567c-2.526.153-5.541 1.455-9.994 1.509-8.914 0-17.085-4.884-21.325-12.746-1.319-2.446-3.629-4.189-6.337-4.782-2.714-.596-5.544.028-7.768 1.703-6.002 4.524-13.605 6.006-20.858 4.066-12.193-3.263-20.02-15.955-17.449-28.294 2.048-9.828 9.757-17.273 19.643-18.968 3.615-.621 6.508-3.192 7.551-6.711 3.019-10.205 12.569-17.331 23.222-17.331 10.865 0 20.466 7.306 23.348 17.766 1.367 4.963 6.535 7.962 11.526 6.679 3.827-.981 7.741-1.01 11.635-.084 11.729 2.789 19.668 13.918 18.467 25.886-.591 5.897-3.153 11.15-7.405 15.191-2.763 2.625-3.71 6.619-2.414 10.175l12.056 33.072-27.645-24.764c-1.764-1.551-3.978-2.367-6.253-2.367zm-23.227 47.284c1.99-2.792 5.23-4.459 8.666-4.459h145.343c3.436 0 6.676 1.667 8.667 4.459 11.097 15.564 22.398 32.524 32.994 49.843h-228.665c10.597-17.319 21.897-34.279 32.995-49.843zm-85.519 178.526c0-28.265 18.915-71.152 43.574-113.667h84.09v129.594h-16.361c-12.419 0-22.523 10.103-22.523 22.523v17.232h-81.502c-4.699-19.524-7.278-38.502-7.278-55.682zm222.409 30.942c4.14 0 7.508 3.368 7.508 7.508v17.232h-126.121v-17.232c0-4.14 3.368-7.508 7.507-7.508zm22.522 24.739v-17.232c0-12.419-10.104-22.523-22.523-22.523h-16.36v-77.556c0-4.146-3.361-7.508-7.508-7.508s-7.508 3.361-7.508 7.508v77.556h-48.355v-129.593h48.355v17.942c0 4.146 3.361 7.507 7.508 7.507s7.508-3.361 7.508-7.507v-17.942h84.09c24.658 42.516 43.574 85.403 43.574 113.667 0 17.181-2.579 36.158-7.278 55.682h-81.503z"/><path d="m215.233 445.03c0 21.366 17.383 38.749 38.749 38.749s38.748-17.383 38.748-38.749-17.383-38.749-38.748-38.749c-21.366 0-38.749 17.383-38.749 38.749zm62.482 0c0 13.087-10.646 23.734-23.733 23.734s-23.734-10.647-23.734-23.734 10.647-23.734 23.734-23.734 23.733 10.647 23.733 23.734z"/><circle cx="176.028" cy="445.54" r="11.592"/><circle cx="332.577" cy="445.54" r="11.592"/></g></g></svg>