<svg width="512" height="512" viewBox="0 0 512 512" fill="none" xmlns="http://www.w3.org/2000/svg">
<path d="M187.682 141.09H454.537L308.765 255.562C305.675 257.986 302 259.169 298.667 259.493C295.31 259.163 291.624 257.98 288.501 255.562L184.326 173.728C183.222 172.84 181.976 172.163 180.605 171.742C185.509 164.824 188.308 156.456 188.16 147.439C188.132 145.374 187.95 143.246 187.682 141.09ZM119.819 67.4704C120.155 67.5273 120.707 67.7378 121.907 68.2953C124.28 69.4217 128.051 72.3231 131.743 76.3679C139.179 84.4688 146.608 96.7398 150.465 104.841C150.585 105.08 150.71 105.341 150.824 105.609C161.769 124.388 166.491 138.752 166.633 147.763C166.787 156.814 164.358 160.711 156.683 165.12L136.886 176.532C123.989 183.956 117.897 197.262 116.383 209.676C114.864 222.094 117.1 234.161 122.624 243.701L171.492 327.925C177.027 337.459 186.476 345.435 198.03 350.333C209.596 355.243 224.222 356.631 237.119 349.224L256.916 337.835C264.585 333.437 269.221 333.346 277.009 337.977C284.82 342.619 294.963 353.832 305.863 372.622C306.017 372.901 306.165 373.134 306.341 373.402C311.45 380.769 318.407 393.267 321.764 403.735C323.43 408.935 324.085 413.634 323.874 416.233C323.641 418.845 323.584 418.577 322.896 418.987L307.832 427.623C269.989 444.035 235.304 440.332 204.305 424.255C173.249 408.11 146.256 378.954 127.437 344.724C127.374 344.656 127.346 344.571 127.295 344.525L86.0729 273.482C86.0047 273.414 85.9762 273.351 85.9193 273.26C65.5247 239.923 53.6406 202.075 55.1311 167.254C56.6216 132.483 70.73 100.785 103.964 76.3963L119.034 67.789C119.381 67.5899 119.495 67.4363 119.819 67.4704ZM119.973 46.3021C115.985 46.2395 111.918 47.0758 108.26 49.1977L92.325 58.3625C91.9666 58.5673 91.6367 58.7778 91.3124 58.9826C52.975 87.0402 35.3224 126.1 33.5986 166.36C31.8749 206.604 45.312 248.138 67.5101 284.45L108.595 355.249L108.499 355.038C129.007 392.306 158.396 424.636 194.31 443.261C230.241 461.915 273.044 466.239 316.644 447.227C317.002 447.073 317.366 446.902 317.69 446.703L333.648 437.538C341.026 433.34 344.735 425.171 345.338 418.037C345.958 410.926 344.508 404.002 342.306 397.181C337.994 383.693 330.473 370.592 324.261 361.603C312.525 341.413 301.193 327.401 288.097 319.568C274.899 311.7 259.055 311.814 246.13 319.244L226.332 330.656C220.484 334.023 213.646 333.631 206.45 330.587C199.288 327.544 192.654 321.457 190.191 317.19L141.323 232.972C138.854 228.682 136.835 219.933 137.791 212.219C138.712 204.527 141.835 198.503 147.689 195.129L166.923 184.07C167.424 186.647 168.88 188.985 170.991 190.555L275.172 272.407C281.947 277.732 289.974 280.696 298.058 281.162C298.468 281.185 298.889 281.185 299.304 281.162C307.393 280.696 315.381 277.726 322.162 272.407L465.647 159.687V345.907C465.647 348.74 462.416 352.472 456.078 352.472H356.745C350.766 352.438 345.924 357.262 345.924 363.207C345.924 369.141 350.771 373.965 356.745 373.931H456.078C472.314 373.931 487.236 362.195 487.236 345.907V147.655C487.236 131.357 472.314 119.626 456.078 119.626H181.771C178.734 112.032 174.723 103.982 169.671 95.2322C164.944 85.3904 157.275 72.3799 147.678 61.9181C142.831 56.616 137.603 51.917 131.066 48.8791V48.9076C127.818 47.3716 123.955 46.3874 119.973 46.3021Z" fill="#EF4444"/>
</svg>
