<?xml version="1.0" encoding="UTF-8"?>
<svg xmlns="http://www.w3.org/2000/svg" xmlns:xlink="http://www.w3.org/1999/xlink" version="1.1" id="Capa_1" x="0px" y="0px" viewBox="0 0 512 512" style="enable-background:new 0 0 512 512;" xml:space="preserve" width="512" height="512">
<g>
	<g>
		<path style="fill:#C9E393;" d="M458.159,11.092L429.689,7.5H47.5c-22.091,0-40,17.909-40,40v204.823c0,22.091,17.909,40,40,40&#10;&#9;&#9;&#9;h181.643c1.072,0,2.062,0.572,2.598,1.5l15.599,27.018c3.849,6.667,13.472,6.667,17.321,0l15.599-27.018&#10;&#9;&#9;&#9;c0.536-0.928,1.526-1.5,2.598-1.5h148.432l28.141-5.296c22.091,0,40-17.909,40-40l-1.271-195.935&#10;&#9;&#9;&#9;C498.159,29,480.251,11.092,458.159,11.092z"/>
		<path style="fill:#B7D96E;" d="M504.5,47.5v204.82c0,22.09-17.91,40-40,40h-39.85c22.09,0,40-17.91,40-40V47.5&#10;&#9;&#9;&#9;c0-22.09-17.91-40-40-40h39.85C486.59,7.5,504.5,25.41,504.5,47.5z"/>
		<g>
			<path style="fill:#FFC74F;" d="M82.229,121.904l-15.195,10.139c-2.069,1.088-4.487-0.669-4.092-2.973l2.016-17.02&#10;&#9;&#9;&#9;&#9;c0.027-0.157-0.642-0.705-0.642-0.705c0.002-0.756-0.302-1.489-0.852-2.026L49.459,95.668c-1.674-1.632-0.75-4.474,1.563-4.81&#10;&#9;&#9;&#9;&#9;l19.354-2.812c0.919-0.133,1.713-0.71,2.123-1.543l8.655-17.537c1.034-2.096,4.023-2.096,5.058,0l8.655,17.537&#10;&#9;&#9;&#9;&#9;c0.411,0.832,1.205,1.409,2.123,1.543l0.898,0.131l15.547,2.939c2.313,0.336,3.237,3.179,1.563,4.81l-13.024,12.23&#10;&#9;&#9;&#9;&#9;c-0.665,0.648-0.968,1.581-0.811,2.496l2.798,18.133c0.395,2.304-2.023,4.061-4.092,2.973l-15.016-9.854&#10;&#9;&#9;&#9;&#9;C84.032,121.472,83.05,121.472,82.229,121.904z"/>
			<path style="fill:#FFAF41;" d="M103.904,109.321c-0.663,0.649-0.966,1.579-0.811,2.496l3.307,19.276&#10;&#9;&#9;&#9;&#9;c0.395,2.298-2.023,4.061-4.096,2.968l-17.309-9.095c-0.818-0.437-1.805-0.437-2.623,0l-17.309,9.095&#10;&#9;&#9;&#9;&#9;c-2.073,1.093-4.491-0.67-4.096-2.968l3.307-19.276c0.028-0.155,0.042-0.317,0.042-0.472c0.479,0.028,0.959,0.035,1.438,0.035&#10;&#9;&#9;&#9;&#9;c14.975,0,27.68-9.722,32.135-23.21l18.458,2.686c2.312,0.338,3.236,3.18,1.558,4.808L103.904,109.321z"/>
		</g>
		<g>
			<path style="fill:#FFC74F;" d="M428.058,121.904l-15.195,10.139c-2.069,1.088-4.487-0.669-4.092-2.973l2.016-17.02&#10;&#9;&#9;&#9;&#9;c0.027-0.157-0.642-0.705-0.642-0.705c0.002-0.756-0.302-1.489-0.852-2.026l-14.004-13.651c-1.674-1.632-0.75-4.474,1.563-4.81&#10;&#9;&#9;&#9;&#9;l19.354-2.812c0.919-0.133,1.713-0.71,2.123-1.543l8.655-17.537c1.034-2.096,4.023-2.096,5.058,0l8.655,17.537&#10;&#9;&#9;&#9;&#9;c0.411,0.832,1.205,1.409,2.123,1.543l0.898,0.131l15.547,2.939c2.313,0.336,3.237,3.179,1.563,4.81l-13.024,12.23&#10;&#9;&#9;&#9;&#9;c-0.665,0.648-0.968,1.581-0.811,2.496l2.798,18.133c0.395,2.304-2.023,4.061-4.092,2.973l-15.016-9.854&#10;&#9;&#9;&#9;&#9;C429.861,121.472,428.879,121.472,428.058,121.904z"/>
			<path style="fill:#FFAF41;" d="M449.732,109.321c-0.663,0.649-0.966,1.579-0.811,2.496l3.307,19.276&#10;&#9;&#9;&#9;&#9;c0.395,2.298-2.023,4.061-4.096,2.968l-17.309-9.095c-0.818-0.437-1.805-0.437-2.623,0l-17.309,9.095&#10;&#9;&#9;&#9;&#9;c-2.073,1.093-4.491-0.67-4.096-2.968l3.307-19.276c0.028-0.155,0.042-0.317,0.042-0.472c0.479,0.028,0.959,0.035,1.438,0.035&#10;&#9;&#9;&#9;&#9;c14.975,0,27.68-9.722,32.135-23.21l18.458,2.686c2.312,0.338,3.236,3.18,1.558,4.808L449.732,109.321z"/>
		</g>
		<g>
			<path style="fill:#FEDECF;" d="M347.517,361.855h34.873l4.594,3.601l5.359-3.601l-0.004-0.003&#10;&#9;&#9;&#9;&#9;c0.15-0.658,0.309-1.319,0.477-1.984c2.255-8.933,1.791-18.345-1.49-26.954c-6.61-17.341-7.911-28.029-7.091-43.515&#10;&#9;&#9;&#9;&#9;c0.135-2.549,0.507-6.842,1.723-10.28c2.379-6.726,7.418-12.397,14.111-14.941c0,0,2.64-0.244,5.46-0.244&#10;&#9;&#9;&#9;&#9;c1,0,1.961,0.095,2.846,0.417c2.521,0.917,4.402,3.228,4.638,6.063l0.459,14.504c0.553,6.786,3.061,13.267,7.232,18.665&#10;&#9;&#9;&#9;&#9;l15.246,18.542c6.206,7.765,10.59,14.724,13.645,21.201c5.865,12.434,17.667,22.214,29.689,27.694&#10;&#9;&#9;&#9;&#9;c6.051,2.758,13.006,3.419,19.841,3.869c1.217,0.08,6.606,0.121,6.606,0.121c1.075,0,1.946,0.871,1.946,1.946v102.29&#10;&#9;&#9;&#9;&#9;c0,1.076-0.873,1.947-1.949,1.946l-29.273-0.063c-16.795-0.045-33.299,4.384-47.817,12.83h0&#10;&#9;&#9;&#9;&#9;c-11.87,6.906-25.357,10.544-39.09,10.544h-42.032l-22.981-3.208L347.517,361.855z"/>
			<path style="fill:#FDD0BF;" d="M394.562,273.388l1.994,19.836c0.555,6.786,3.065,13.265,7.234,18.664l14.282,18.514&#10;&#9;&#9;&#9;&#9;c6.134,7.676,10.488,14.564,13.538,20.975c9.481,19.934,29.357,32.839,51.433,32.839l20.099-9.211&#10;&#9;&#9;&#9;&#9;c-22.075,0-41.952-12.905-51.433-32.839c-3.05-6.411-7.404-13.299-13.538-20.975l-14.282-18.514&#10;&#9;&#9;&#9;&#9;c-4.169-5.399-6.679-11.879-7.234-18.665l-1.202-14.792c-0.238-2.836-2.116-5.147-4.641-6.061&#10;&#9;&#9;&#9;&#9;c-0.88-0.326-1.844-0.418-2.846-0.418C405.146,262.742,396.989,272.464,394.562,273.388z"/>
			<g>
				<g>
					<path style="fill:#FEDECF;" d="M347.517,361.855h-42.653c-9.847,0-17.829,7.982-17.829,17.829v0&#10;&#9;&#9;&#9;&#9;&#9;&#9;c0,1.982,0.325,3.888,0.922,5.669c4.304,6.935,11.292,10.525,19.156,10.525l40.403,1.635c9.847,0,17.829-7.982,17.829-17.829v0&#10;&#9;&#9;&#9;&#9;&#9;&#9;C365.346,369.837,357.363,361.855,347.517,361.855z"/>
				</g>
				<g>
					<path style="fill:#FDD0BF;" d="M285.841,382.102c0.88,2.646,2.371,5.01,4.302,6.936c3.225,3.23,7.681,5.224,12.604,5.224&#10;&#9;&#9;&#9;&#9;&#9;&#9;l20.037,5.805l22.615-5.805c9.846,0,17.828-7.982,17.828-17.828c0-4.928-1.994-9.383-5.224-12.608&#10;&#9;&#9;&#9;&#9;&#9;&#9;c-2.097-2.097-4.709-3.677-7.637-4.524c0.457,1.576,0.916,3.258,0.701,4.971c-1.24,9.849-10.474,17.835-17.828,17.828&#10;&#9;&#9;&#9;&#9;&#9;&#9;L285.841,382.102z"/>
				</g>
			</g>
			<g>
				<g>
					<path style="fill:#FEDECF;" d="M347.517,433.172h-42.653c-9.847,0-17.829,7.982-17.829,17.829v0&#10;&#9;&#9;&#9;&#9;&#9;&#9;c0,1.982,0.325,3.888,0.922,5.669c4.304,6.935,11.292,10.525,19.156,10.525l40.403,1.635c9.847,0,17.829-7.982,17.829-17.829v0&#10;&#9;&#9;&#9;&#9;&#9;&#9;C365.346,441.154,357.363,433.172,347.517,433.172z"/>
				</g>
				<g>
					<path style="fill:#FDD0BF;" d="M285.841,452.717c0.88,2.646,2.371,5.01,4.302,6.936c3.225,3.23,7.681,5.224,12.604,5.224&#10;&#9;&#9;&#9;&#9;&#9;&#9;l13.01,0l7.027,5.805l22.615-5.805c9.846,0,17.828-7.982,17.828-17.828c0-4.928-1.994-9.383-5.224-12.608&#10;&#9;&#9;&#9;&#9;&#9;&#9;c-2.097-2.097-4.709-3.677-7.637-4.524c0.457,1.576,0.7,3.245,0.7,4.971c0,9.845-7.983,17.828-17.828,17.828L285.841,452.717z"/>
				</g>
			</g>
			<g>
				<g>
					<path style="fill:#FEDECF;" d="M347.517,468.83h-29.643c-9.847,0-17.829,7.982-17.829,17.829v0&#10;&#9;&#9;&#9;&#9;&#9;&#9;c0,1.982,0.325,3.888,0.922,5.669c4.304,6.935,11.292,10.525,19.156,10.525l26.57,0.086c9.847,0,18.652-6.434,18.652-16.281v0&#10;&#9;&#9;&#9;&#9;&#9;&#9;C365.346,476.812,357.363,468.83,347.517,468.83z"/>
				</g>
				<g>
					<path style="fill:#FDD0BF;" d="M298.851,489.505c0.88,2.646,2.371,5.01,4.302,6.936c3.225,3.23,7.681,5.224,12.604,5.224&#10;&#9;&#9;&#9;&#9;&#9;&#9;h29.642c9.846,0,17.828-7.982,17.828-17.828c0-4.928-1.994-9.383-5.224-12.608c-2.097-2.097-4.709-3.677-7.637-4.524&#10;&#9;&#9;&#9;&#9;&#9;&#9;c0.457,1.576,0.7,3.245,0.7,4.971c0,9.845-7.983,17.828-17.828,17.828L298.851,489.505z"/>
				</g>
			</g>
			<g>
				<g>
					<path style="fill:#FEDECF;" d="M347.517,397.513h-51.77c-9.847,0-17.829,7.982-17.829,17.829v0&#10;&#9;&#9;&#9;&#9;&#9;&#9;c0,1.982,0.325,3.888,0.922,5.669c4.304,6.935,11.292,10.525,19.156,10.525l49.52,1.635c9.847,0,17.829-7.982,17.829-17.829v0&#10;&#9;&#9;&#9;&#9;&#9;&#9;C365.346,405.496,357.363,397.513,347.517,397.513z"/>
				</g>
				<g>
					<path style="fill:#FDD0BF;" d="M276.096,417.059c0.881,2.646,2.371,5.01,4.302,6.936c3.225,3.23,7.681,5.224,12.604,5.224&#10;&#9;&#9;&#9;&#9;&#9;&#9;h51.769c9.846,0,17.828-7.982,17.828-17.828c0-4.928-1.994-9.383-5.225-12.608c-2.097-2.097-4.709-3.677-7.637-4.524&#10;&#9;&#9;&#9;&#9;&#9;&#9;c0.457,1.576,0.7,3.245,0.7,4.971c0,9.845-7.983,17.828-17.828,17.828L276.096,417.059z"/>
				</g>
			</g>
		</g>
		<g>
			<path style="fill:#FEDECF;" d="M164.483,361.855h-34.873l-4.594,3.602l-5.359-3.602l0.004-0.003&#10;&#9;&#9;&#9;&#9;c-0.15-0.658-0.309-1.319-0.477-1.984c-2.255-8.933-1.791-18.345,1.49-26.954c6.61-17.341,7.911-28.029,7.091-43.515&#10;&#9;&#9;&#9;&#9;c0.191-12.759-10.367-29.063-26.579-26.238c-2.525,0.915-4.402,3.225-4.641,6.061l-1.202,14.792&#10;&#9;&#9;&#9;&#9;c-0.555,6.786-3.065,13.265-7.234,18.665c-8.126,10.806-22.623,27.861-27.82,39.489c-9.098,19.129-27.771,31.778-48.771,32.769&#10;&#9;&#9;&#9;&#9;c-2.023,0.048-5.25,0.073-5.25,0.073c-1.075,0-1.946,0.871-1.946,1.946v102.29c0,1.076,0.873,1.948,1.949,1.946l29.273-0.063&#10;&#9;&#9;&#9;&#9;c16.795-0.045,33.3,4.384,47.817,12.83c11.87,6.906,25.357,10.544,39.09,10.544h42.032l22.981-3.208L164.483,361.855z"/>
			<g>
				<g>
					<path style="fill:#FEDECF;" d="M164.483,361.855h42.653c9.847,0,17.829,7.982,17.829,17.829v0c0,1.982-0.325,3.888-0.922,5.669&#10;&#9;&#9;&#9;&#9;&#9;&#9;c-4.304,6.935-11.292,10.525-19.156,10.525l-40.403,1.635c-9.847,0-17.829-7.982-17.829-17.829v0&#10;&#9;&#9;&#9;&#9;&#9;&#9;C146.654,369.837,154.637,361.855,164.483,361.855z"/>
				</g>
				<g>
					<path style="fill:#FDD0BF;" d="M227.243,380.459c-0.881,2.646-2.371,5.01-4.302,6.936c-3.225,3.23-7.681,5.224-12.604,5.224&#10;&#9;&#9;&#9;&#9;&#9;&#9;l-20.037,5.805l-22.615-5.805c-9.846,0-17.828-7.982-17.828-17.828c0-4.928,1.994-9.383,5.224-12.608&#10;&#9;&#9;&#9;&#9;&#9;&#9;c2.097-2.097,4.709-3.677,7.637-4.524c-0.457,1.576-0.7,3.245-0.7,4.971c0,9.845,7.983,17.828,17.828,17.828L227.243,380.459z"/>
				</g>
			</g>
			<g>
				<g>
					<path style="fill:#FEDECF;" d="M164.483,433.172h42.653c9.847,0,17.829,7.982,17.829,17.829v0c0,1.982-0.325,3.888-0.922,5.669&#10;&#9;&#9;&#9;&#9;&#9;&#9;c-4.304,6.935-11.292,10.525-19.156,10.525l-40.403,1.635c-9.847,0-17.829-7.982-17.829-17.829v0&#10;&#9;&#9;&#9;&#9;&#9;&#9;C146.654,441.154,154.637,433.172,164.483,433.172z"/>
				</g>
				<g>
					<path style="fill:#FDD0BF;" d="M226.159,453.846c-0.881,2.646-2.371,5.01-4.302,6.936c-3.225,3.23-7.681,5.224-12.604,5.224&#10;&#9;&#9;&#9;&#9;&#9;&#9;l-13.01,0l-7.027,5.805l-22.615-5.805c-9.846,0-17.828-7.982-17.828-17.828c0-4.928,1.994-9.383,5.225-12.608&#10;&#9;&#9;&#9;&#9;&#9;&#9;c2.097-2.097,4.709-3.677,7.637-4.524c-0.457,1.576-0.7,3.245-0.7,4.971c0,9.845,7.983,17.828,17.828,17.828L226.159,453.846z"/>
				</g>
			</g>
			<g>
				<g>
					<path style="fill:#FEDECF;" d="M164.483,468.83h29.643c9.847,0,17.829,7.982,17.829,17.829v0c0,1.982-0.325,3.888-0.922,5.669&#10;&#9;&#9;&#9;&#9;&#9;&#9;c-4.304,6.935-11.292,10.525-19.156,10.525l-26.57,0.086c-9.847,0-18.652-6.434-18.652-16.281v0&#10;&#9;&#9;&#9;&#9;&#9;&#9;C146.654,476.812,154.637,468.83,164.483,468.83z"/>
				</g>
				<g>
					<path style="fill:#FDD0BF;" d="M213.762,489.787c-0.881,2.646-2.371,5.01-4.302,6.936c-3.225,3.23-7.681,5.224-12.604,5.224&#10;&#9;&#9;&#9;&#9;&#9;&#9;h-29.642c-9.846,0-17.828-7.982-17.828-17.828c0-4.928,1.994-9.383,5.224-12.608c2.097-2.097,4.709-3.677,7.637-4.524&#10;&#9;&#9;&#9;&#9;&#9;&#9;c-0.457,1.576-0.7,3.245-0.7,4.971c0,9.845,7.983,17.828,17.828,17.828L213.762,489.787z"/>
				</g>
			</g>
			<g>
				<g>
					<path style="fill:#FEDECF;" d="M164.483,397.513h51.77c9.847,0,17.829,7.982,17.829,17.829v0c0,1.982-0.325,3.888-0.922,5.669&#10;&#9;&#9;&#9;&#9;&#9;&#9;c-4.304,6.935-11.292,10.525-19.156,10.525l-49.52,1.635c-9.847,0-17.829-7.982-17.829-17.829v0&#10;&#9;&#9;&#9;&#9;&#9;&#9;C146.654,405.496,154.637,397.513,164.483,397.513z"/>
				</g>
				<g>
					<path style="fill:#FDD0BF;" d="M234.854,417.529c-0.881,2.646-2.371,5.01-4.302,6.936c-3.225,3.23-7.681,5.224-12.604,5.224&#10;&#9;&#9;&#9;&#9;&#9;&#9;h-51.769c-9.846,0-17.828-7.982-17.828-17.828c0-4.928,1.994-9.383,5.224-12.608c2.097-2.097,4.709-3.677,7.637-4.524&#10;&#9;&#9;&#9;&#9;&#9;&#9;c-0.457,1.576-0.7,3.245-0.7,4.971c0,9.845,7.983,17.828,17.828,17.828L234.854,417.529z"/>
				</g>
			</g>
		</g>
	</g>
	<g>
		<path style="fill:none;stroke:#000000;stroke-width:15;stroke-linecap:round;stroke-linejoin:round;stroke-miterlimit:10;" d="&#10;&#9;&#9;&#9;M66.184,7.5H47.5c-22.091,0-40,17.909-40,40v204.823c0,22.091,17.909,40,40,40h45.133"/>
		<path style="fill:none;stroke:#000000;stroke-width:15;stroke-linecap:round;stroke-linejoin:round;stroke-miterlimit:10;" d="&#10;&#9;&#9;&#9;M504.5,197.42V47.5c0-22.091-17.909-40-40-40H101.184"/>
		<path style="fill:none;stroke:#000000;stroke-width:15;stroke-linecap:round;stroke-linejoin:round;stroke-miterlimit:10;" d="&#10;&#9;&#9;&#9;M419.366,292.323H464.5c22.091,0,40-17.909,40-40V232.42"/>
		<path style="fill:none;stroke:#000000;stroke-width:15;stroke-linecap:round;stroke-linejoin:round;stroke-miterlimit:10;" d="&#10;&#9;&#9;&#9;M196.452,292.323h34.423l16.465,28.518c3.849,6.667,13.472,6.667,17.321,0l16.465-28.518h101.983"/>
		
			<line style="fill:none;stroke:#000000;stroke-width:15;stroke-linecap:round;stroke-linejoin:round;stroke-miterlimit:10;" x1="128.98" y1="292.323" x2="161.452" y2="292.323"/>
		<g>
			<g>
				
					<polyline style="fill:none;stroke:#000000;stroke-width:15;stroke-linecap:round;stroke-linejoin:round;stroke-miterlimit:10;" points="&#10;&#9;&#9;&#9;&#9;&#9;245.566,67.402 218.304,67.402 218.304,132.101 245.566,132.101 &#9;&#9;&#9;&#9;"/>
				
					<line style="fill:none;stroke:#000000;stroke-width:15;stroke-linecap:round;stroke-linejoin:round;stroke-miterlimit:10;" x1="242.517" y1="99.752" x2="218.459" y2="99.752"/>
			</g>
			<g>
				<path style="fill:none;stroke:#000000;stroke-width:15;stroke-linecap:round;stroke-linejoin:round;stroke-miterlimit:10;" d="&#10;&#9;&#9;&#9;&#9;&#9;M186.756,82.298c0,8.227-6.669,14.921-14.896,14.921h-18.805V67.402h18.805C180.086,67.402,186.756,74.071,186.756,82.298z"/>
				<path style="fill:none;stroke:#000000;stroke-width:15;stroke-linecap:round;stroke-linejoin:round;stroke-miterlimit:10;" d="&#10;&#9;&#9;&#9;&#9;&#9;M192.569,114.638c0,9.624-7.802,17.464-17.425,17.464h-22.089V97.22h22.089C184.767,97.22,192.569,105.014,192.569,114.638z"/>
			</g>
			<g>
				<path style="fill:none;stroke:#000000;stroke-width:15;stroke-linecap:round;stroke-linejoin:round;stroke-miterlimit:10;" d="&#10;&#9;&#9;&#9;&#9;&#9;M310.067,74.053c0,0-11.61-9.759-25.3-5.635c-12.571,3.787-14.257,18.477-5.234,24.211c4.286,2.723,8.768,4.207,18.822,7.632&#10;&#9;&#9;&#9;&#9;&#9;c22.657,7.718,13.563,31.84-5.618,31.84c-9.605,0-17.667-4.206-22.546-9.591"/>
			</g>
			<g>
				
					<line style="fill:none;stroke:#000000;stroke-width:15;stroke-linecap:round;stroke-linejoin:round;stroke-miterlimit:10;" x1="335.217" y1="67.404" x2="370.945" y2="67.404"/>
				
					<line style="fill:none;stroke:#000000;stroke-width:15;stroke-linecap:round;stroke-linejoin:round;stroke-miterlimit:10;" x1="353.009" y1="69.47" x2="353.009" y2="132.099"/>
			</g>
		</g>
		<g>
			<g>
				
					<line style="fill:none;stroke:#000000;stroke-width:15;stroke-linecap:round;stroke-linejoin:round;stroke-miterlimit:10;" x1="312.112" y1="167.723" x2="312.112" y2="232.42"/>
			</g>
			<g>
				
					<line style="fill:none;stroke:#000000;stroke-width:15;stroke-linecap:round;stroke-linejoin:round;stroke-miterlimit:10;" x1="150.198" y1="167.723" x2="150.198" y2="232.42"/>
				
					<line style="fill:none;stroke:#000000;stroke-width:15;stroke-linecap:round;stroke-linejoin:round;stroke-miterlimit:10;" x1="194.969" y1="167.723" x2="194.969" y2="232.42"/>
				
					<line style="fill:none;stroke:#000000;stroke-width:15;stroke-linecap:round;stroke-linejoin:round;stroke-miterlimit:10;" x1="150.198" y1="198.962" x2="194.969" y2="198.962"/>
			</g>
			<g>
				
					<polyline style="fill:none;stroke:#000000;stroke-width:15;stroke-linecap:round;stroke-linejoin:round;stroke-miterlimit:10;" points="&#10;&#9;&#9;&#9;&#9;&#9;440.913,167.723 413.652,167.723 413.652,232.42 440.913,232.42 &#9;&#9;&#9;&#9;"/>
				
					<line style="fill:none;stroke:#000000;stroke-width:15;stroke-linecap:round;stroke-linejoin:round;stroke-miterlimit:10;" x1="437.865" y1="200.072" x2="413.808" y2="200.072"/>
			</g>
			<g>
				<path style="fill:none;stroke:#000000;stroke-width:15;stroke-linecap:round;stroke-linejoin:round;stroke-miterlimit:10;" d="&#10;&#9;&#9;&#9;&#9;&#9;M121.709,173.248c-5.163-3.488-11.387-5.525-18.086-5.525c-17.866,0-32.349,14.483-32.349,32.349s14.483,32.349,32.349,32.349&#10;&#9;&#9;&#9;&#9;&#9;c7.256,0,13.224-2.389,17.754-6.423c0.937-0.835,1.813-1.74,2.626-2.709"/>
			</g>
			<g>
				<path style="fill:none;stroke:#000000;stroke-width:15;stroke-linecap:round;stroke-linejoin:round;stroke-miterlimit:10;" d="&#10;&#9;&#9;&#9;&#9;&#9;M385.465,173.248c-5.163-3.488-11.387-5.525-18.086-5.525c-17.866,0-32.349,14.483-32.349,32.349s14.483,32.349,32.349,32.349&#10;&#9;&#9;&#9;&#9;&#9;c7.256,0,13.224-2.389,17.754-6.423c0.937-0.835,1.813-1.74,2.626-2.709"/>
			</g>
			
				<circle style="fill:none;stroke:#000000;stroke-width:15;stroke-linecap:round;stroke-linejoin:round;stroke-miterlimit:10;" cx="253.064" cy="200.072" r="32.349"/>
		</g>
		<g>
			<path style="fill:none;stroke:#000000;stroke-width:15;stroke-linecap:round;stroke-linejoin:round;stroke-miterlimit:10;" d="&#10;&#9;&#9;&#9;&#9;M82.611,122.694l-17.376,9.135c-1.691,0.889-3.668-0.547-3.345-2.43l3.319-19.349c0.128-0.748-0.12-1.511-0.663-2.04&#10;&#9;&#9;&#9;&#9;L50.488,94.307c-1.368-1.334-0.613-3.657,1.278-3.932l19.427-2.823c0.751-0.109,1.4-0.581,1.736-1.261l8.688-17.604&#10;&#9;&#9;&#9;&#9;c0.846-1.713,3.289-1.713,4.134,0l8.688,17.604c0.336,0.68,0.985,1.152,1.736,1.261l19.427,2.823&#10;&#9;&#9;&#9;&#9;c1.891,0.275,2.646,2.598,1.278,3.932l-14.058,13.703c-0.543,0.53-0.791,1.293-0.663,2.04l3.319,19.349&#10;&#9;&#9;&#9;&#9;c0.323,1.883-1.654,3.319-3.345,2.43l-17.376-9.135C84.085,122.341,83.283,122.341,82.611,122.694z"/>
			<path style="fill:none;stroke:#000000;stroke-width:15;stroke-linecap:round;stroke-linejoin:round;stroke-miterlimit:10;" d="&#10;&#9;&#9;&#9;&#9;M428.478,123.026l-16.763,8.813c-1.631,0.858-3.538-0.528-3.227-2.344l3.201-18.666c0.124-0.721-0.115-1.458-0.64-1.968&#10;&#9;&#9;&#9;&#9;l-13.561-13.219c-1.32-1.287-0.592-3.528,1.233-3.793l18.741-2.723c0.724-0.105,1.351-0.56,1.674-1.217l8.381-16.982&#10;&#9;&#9;&#9;&#9;c0.816-1.653,3.173-1.653,3.988,0l8.381,16.982c0.324,0.656,0.95,1.111,1.674,1.217l18.741,2.723&#10;&#9;&#9;&#9;&#9;c1.824,0.265,2.552,2.507,1.233,3.793l-13.561,13.219c-0.524,0.511-0.763,1.247-0.64,1.968l3.201,18.666&#10;&#9;&#9;&#9;&#9;c0.312,1.817-1.595,3.202-3.227,2.344l-16.763-8.813C429.9,122.686,429.126,122.686,428.478,123.026z"/>
		</g>
		<g>
			<g>
				<g>
					<g>
						
							<path style="fill:none;stroke:#000000;stroke-width:15;stroke-linecap:round;stroke-linejoin:round;stroke-miterlimit:10;" d="&#10;&#9;&#9;&#9;&#9;&#9;&#9;&#9;M304.386,433.172c-9.846,0-17.828,7.982-17.828,17.829v0c0,9.847,7.982,17.829,17.828,17.829h38.077&#10;&#9;&#9;&#9;&#9;&#9;&#9;&#9;c9.846,0,17.828-7.982,17.828-17.829v0c0-9.847-7.982-17.829-17.828-17.829"/>
					</g>
					<g>
						
							<path style="fill:none;stroke:#000000;stroke-width:15;stroke-linecap:round;stroke-linejoin:round;stroke-miterlimit:10;" d="&#10;&#9;&#9;&#9;&#9;&#9;&#9;&#9;M342.949,397.513h-47.203c-9.846,0-17.828,7.982-17.828,17.829v0c0,9.847,7.982,17.829,17.828,17.829h47.203&#10;&#9;&#9;&#9;&#9;&#9;&#9;&#9;c9.846,0,17.828-7.982,17.828-17.829v0C360.777,405.496,352.795,397.513,342.949,397.513z"/>
					</g>
					<g>
						
							<path style="fill:none;stroke:#000000;stroke-width:15;stroke-linecap:round;stroke-linejoin:round;stroke-miterlimit:10;" d="&#10;&#9;&#9;&#9;&#9;&#9;&#9;&#9;M342.949,397.513c9.846,0,17.828-7.982,17.828-17.829v0c0-9.847-7.982-17.829-17.828-17.829h-38.077&#10;&#9;&#9;&#9;&#9;&#9;&#9;&#9;c-9.846,0-17.828,7.982-17.828,17.829v0c0,9.847,7.982,17.829,17.828,17.829"/>
					</g>
					<path style="fill:none;stroke:#000000;stroke-width:15;stroke-linecap:round;stroke-linejoin:round;stroke-miterlimit:10;" d="&#10;&#9;&#9;&#9;&#9;&#9;&#9;M438.802,321.984c-0.207-0.263-0.416-0.526-0.628-0.791l-14.282-18.516c-4.171-5.398-6.679-11.879-7.232-18.665l-1.203-14.792&#10;&#9;&#9;&#9;&#9;&#9;&#9;c-0.236-2.835-2.117-5.145-4.638-6.063c-0.885-0.322-1.846-0.417-2.845-0.417c-10.581,0-18.769,7.207-22.012,16.377&#10;&#9;&#9;&#9;&#9;&#9;&#9;c-1.216,3.437-1.588,7.73-1.723,10.28c-0.82,15.488,0.482,26.176,7.092,43.519c3.299,8.656,3.705,18.11,1.452,27.095&#10;&#9;&#9;&#9;&#9;&#9;&#9;c-7.504,29.94,2.944,53.243,37.002,67.911"/>
					<path style="fill:none;stroke:#000000;stroke-width:15;stroke-linecap:round;stroke-linejoin:round;stroke-miterlimit:10;" d="&#10;&#9;&#9;&#9;&#9;&#9;&#9;M504.5,375.008h-1.36c-18.296,0-35.079-8.867-45.688-23.252"/>
					<path style="fill:none;stroke:#000000;stroke-width:15;stroke-linecap:round;stroke-linejoin:round;stroke-miterlimit:10;" d="&#10;&#9;&#9;&#9;&#9;&#9;&#9;M317.875,504.5h71.677c13.732,0,27.219-3.638,39.088-10.544l0,0c14.517-8.446,31.02-12.874,47.815-12.83l28.044,0.043"/>
					<path style="fill:none;stroke:#000000;stroke-width:15;stroke-linecap:round;stroke-linejoin:round;stroke-miterlimit:10;" d="&#10;&#9;&#9;&#9;&#9;&#9;&#9;M342.943,504.5c9.85,0,17.834-7.985,17.834-17.835v0c0-9.85-7.985-17.835-17.834-17.835"/>
					<path style="fill:none;stroke:#000000;stroke-width:15;stroke-linecap:round;stroke-linejoin:round;stroke-miterlimit:10;" d="&#10;&#9;&#9;&#9;&#9;&#9;&#9;M317.887,468.83c-9.85,0-17.834,7.985-17.834,17.835v0c0,9.845,7.977,17.828,17.822,17.835"/>
					
						<line style="fill:none;stroke:#000000;stroke-width:15;stroke-linecap:round;stroke-linejoin:round;stroke-miterlimit:10;" x1="342.949" y1="361.855" x2="391.987" y2="361.855"/>
				</g>
			</g>
			<g>
				<g>
					<g>
						
							<path style="fill:none;stroke:#000000;stroke-width:15;stroke-linecap:round;stroke-linejoin:round;stroke-miterlimit:10;" d="&#10;&#9;&#9;&#9;&#9;&#9;&#9;&#9;M169.051,397.513h47.203c9.846,0,17.828,7.982,17.828,17.829v0c0,9.847-7.982,17.829-17.828,17.829h-47.203&#10;&#9;&#9;&#9;&#9;&#9;&#9;&#9;c-9.846,0-17.828-7.982-17.828-17.829v0C151.223,405.496,159.205,397.513,169.051,397.513z"/>
					</g>
					<g>
						
							<path style="fill:none;stroke:#000000;stroke-width:15;stroke-linecap:round;stroke-linejoin:round;stroke-miterlimit:10;" d="&#10;&#9;&#9;&#9;&#9;&#9;&#9;&#9;M207.614,433.172c9.846,0,17.828,7.982,17.828,17.829v0c0,9.847-7.982,17.829-17.828,17.829h-38.077&#10;&#9;&#9;&#9;&#9;&#9;&#9;&#9;c-9.846,0-17.828-7.982-17.828-17.829v0c0-9.847,7.982-17.829,17.828-17.829"/>
					</g>
					<g>
						
							<path style="fill:none;stroke:#000000;stroke-width:15;stroke-linecap:round;stroke-linejoin:round;stroke-miterlimit:10;" d="&#10;&#9;&#9;&#9;&#9;&#9;&#9;&#9;M169.051,397.513c-9.846,0-17.828-7.982-17.828-17.829v0c0-9.847,7.982-17.829,17.828-17.829h38.077&#10;&#9;&#9;&#9;&#9;&#9;&#9;&#9;c9.846,0,17.828,7.982,17.828,17.829v0c0,9.847-7.982,17.829-17.828,17.829l0,0"/>
					</g>
					<path style="fill:none;stroke:#000000;stroke-width:15;stroke-linecap:round;stroke-linejoin:round;stroke-miterlimit:10;" d="&#10;&#9;&#9;&#9;&#9;&#9;&#9;M8.86,375.008c22.075,0,41.947-12.907,51.43-32.842c3.05-6.413,7.404-13.299,13.536-20.972l14.282-18.516&#10;&#9;&#9;&#9;&#9;&#9;&#9;c4.171-5.398,6.679-11.879,7.232-18.665l1.203-14.792c0.236-2.835,2.117-5.145,4.638-6.063&#10;&#9;&#9;&#9;&#9;&#9;&#9;c0.885-0.322,1.846-0.417,2.845-0.417c10.581,0,18.769,7.207,22.012,16.377c1.216,3.437,1.588,7.73,1.723,10.28&#10;&#9;&#9;&#9;&#9;&#9;&#9;c0.82,15.488-0.482,26.176-7.092,43.519c-3.299,8.656-3.705,18.11-1.452,27.095c7.504,29.94-2.944,53.243-37.002,67.911"/>
					<path style="fill:none;stroke:#000000;stroke-width:15;stroke-linecap:round;stroke-linejoin:round;stroke-miterlimit:10;" d="&#10;&#9;&#9;&#9;&#9;&#9;&#9;M194.125,504.5h-71.677c-13.732,0-27.219-3.638-39.088-10.544l0,0c-14.517-8.446-31.02-12.874-47.815-12.83L7.5,481.17"/>
					<path style="fill:none;stroke:#000000;stroke-width:15;stroke-linecap:round;stroke-linejoin:round;stroke-miterlimit:10;" d="&#10;&#9;&#9;&#9;&#9;&#9;&#9;M169.057,504.5c-9.85,0-17.834-7.985-17.834-17.835v0c0-9.85,7.985-17.835,17.834-17.835"/>
					<path style="fill:none;stroke:#000000;stroke-width:15;stroke-linecap:round;stroke-linejoin:round;stroke-miterlimit:10;" d="&#10;&#9;&#9;&#9;&#9;&#9;&#9;M194.113,468.83c9.85,0,17.834,7.985,17.834,17.835v0c0,9.845-7.977,17.828-17.822,17.835"/>
					
						<line style="fill:none;stroke:#000000;stroke-width:15;stroke-linecap:round;stroke-linejoin:round;stroke-miterlimit:10;" x1="169.051" y1="361.855" x2="120.013" y2="361.855"/>
				</g>
			</g>
		</g>
	</g>
</g>















</svg>
