<svg width="24" height="24" viewBox="0 0 24 24" fill="none" xmlns="http://www.w3.org/2000/svg">
<g clip-path="url(#clip0_220_581)">
<mask id="mask0_220_581" style="mask-type:luminance" maskUnits="userSpaceOnUse" x="0" y="0" width="24" height="24">
<path d="M23.9532 0.0141602H0V23.9674H23.9532V0.0141602Z" fill="white"/>
</mask>
<g mask="url(#mask0_220_581)">
<path d="M22.6355 1.33178C21.7574 0.453421 20.6994 0.0141602 19.4623 0.0141602H4.49144C3.25439 0.0141602 2.19638 0.453421 1.31786 1.33178C0.439505 2.2103 0.000244141 3.26825 0.000244141 4.50536V19.4761C0.000244141 20.7131 0.439505 21.7711 1.31786 22.6496C2.19638 23.5282 3.25439 23.9674 4.49144 23.9674H19.4621C20.6992 23.9674 21.7572 23.5282 22.6353 22.6496C23.5139 21.7711 23.9531 20.7131 23.9531 19.4761V4.50536C23.9531 3.26825 23.5138 2.21014 22.6355 1.33178ZM19.6177 18.196C19.3994 18.6742 18.9081 19.0902 18.1442 19.4439C17.38 19.7976 16.7014 19.9744 16.1087 19.9744C15.9423 19.9744 15.7655 19.9615 15.5784 19.9355C15.3913 19.9094 15.233 19.8836 15.1031 19.8575C14.9732 19.8315 14.8014 19.7848 14.5885 19.7171C14.3752 19.6498 14.2217 19.5976 14.1285 19.5613C14.0346 19.525 13.8632 19.46 13.6139 19.3665C13.3643 19.2727 13.2082 19.2155 13.1462 19.1951C11.4412 18.5709 9.77499 17.4457 8.14804 15.8188C6.52109 14.1914 5.39562 12.5256 4.7718 10.8209C4.75117 10.7584 4.69396 10.6024 4.6003 10.353C4.50679 10.1037 4.44163 9.93202 4.40525 9.83855C4.3691 9.74498 4.31704 9.59162 4.24942 9.37862C4.18185 9.16547 4.13521 8.99406 4.10915 8.86395C4.08305 8.73417 4.05726 8.57572 4.03121 8.38854C4.00521 8.20135 3.99226 8.02437 3.99226 7.85815C3.99226 7.2655 4.16907 6.58718 4.52263 5.82302C4.87613 5.05899 5.2919 4.56779 5.77021 4.34942C6.32123 4.12061 6.84624 4.00623 7.34532 4.00623C7.45952 4.00623 7.54285 4.01672 7.59468 4.03748C7.64675 4.05851 7.73255 4.15185 7.85218 4.31823C7.97176 4.48461 8.10168 4.69506 8.24198 4.9498C8.38238 5.20463 8.52011 5.45155 8.65527 5.69057C8.79038 5.92964 8.92039 6.16603 9.04521 6.40014C9.16993 6.63387 9.24787 6.78222 9.27903 6.8444C9.31019 6.89665 9.37784 6.99527 9.4817 7.14091C9.58561 7.28636 9.66378 7.41614 9.71566 7.53066C9.76755 7.645 9.79361 7.7542 9.79361 7.85815C9.79361 8.01431 9.68694 8.20397 9.47384 8.42732C9.26065 8.65085 9.02673 8.85628 8.77199 9.04346C8.51721 9.23069 8.28338 9.43083 8.07024 9.64398C7.85728 9.85693 7.75061 10.0311 7.75061 10.1663C7.75061 10.2391 7.76881 10.3248 7.80525 10.4235C7.84161 10.5225 7.87543 10.6031 7.90663 10.6654C7.93779 10.7277 7.98729 10.8161 8.05475 10.9306C8.12231 11.0451 8.16661 11.1178 8.18724 11.149C8.75899 12.1782 9.41667 13.0646 10.1598 13.808C10.9033 14.5516 11.7895 15.2089 12.8189 15.7807C12.8498 15.8017 12.9228 15.8458 13.0376 15.9135C13.1518 15.9808 13.2404 16.0301 13.3027 16.0613C13.3651 16.0925 13.4454 16.1264 13.5443 16.1625C13.6433 16.1988 13.729 16.2171 13.8021 16.2171C13.968 16.2171 14.1967 16.0457 14.4882 15.7026C14.7792 15.3593 15.0757 15.0189 15.3772 14.6809C15.6785 14.3433 15.9225 14.1744 16.1101 14.1744C16.214 14.1744 16.3229 14.2002 16.4377 14.2522C16.5522 14.3041 16.6818 14.3823 16.8273 14.4862C16.9731 14.5905 17.0718 14.6578 17.1238 14.6894L17.9499 15.1412C18.501 15.4324 18.961 15.6896 19.3302 15.9132C19.6994 16.1367 19.8996 16.29 19.9308 16.3731C19.9515 16.425 19.9616 16.5084 19.9616 16.6228C19.9612 17.1214 19.8468 17.6464 19.6177 18.196Z" fill="#EF4444"/>
</g>
</g>
<defs>
<clipPath id="clip0_220_581">
<rect width="23.9532" height="24" fill="white"/>
</clipPath>
</defs>
</svg>
