<svg width="512" height="513" viewBox="0 0 512 513" fill="none" xmlns="http://www.w3.org/2000/svg">
<g clip-path="url(#clip0_417_1062)">
<path d="M398.231 236.677L170.385 8.83423C165.115 3.56026 158.08 0.654785 150.579 0.654785C143.078 0.654785 136.043 3.56026 130.774 8.83423L113.994 25.6094C103.076 36.5403 103.076 54.3061 113.994 65.2204L305.323 256.549L113.782 448.089C108.512 453.363 105.603 460.394 105.603 467.891C105.603 475.396 108.512 482.426 113.782 487.704L130.561 504.475C135.835 509.749 142.866 512.655 150.367 512.655C157.868 512.655 164.902 509.749 170.172 504.475L398.231 276.425C403.513 271.134 406.415 264.07 406.398 256.561C406.415 249.023 403.513 241.963 398.231 236.677Z" fill="black"/>
</g>
<defs>
<clipPath id="clip0_417_1062">
<rect width="512" height="512" fill="white" transform="translate(0 0.654785)"/>
</clipPath>
</defs>
</svg>
