<svg width="512" height="513" viewBox="0 0 512 513" fill="none" xmlns="http://www.w3.org/2000/svg">
<g clip-path="url(#clip0_455_826)">
<path d="M480 448.656H32.0002C14.3264 448.656 0 434.328 0 416.655C0 398.983 14.3264 384.655 32.0002 384.655H480.001C497.674 384.655 512.001 398.983 512.001 416.655C512 434.328 497.674 448.656 480 448.656Z" fill="black"/>
<path d="M480 288.655H32.0002C14.3264 288.655 0 274.328 0 256.655C0 238.983 14.3264 224.655 32.0002 224.655H480.001C497.674 224.655 512.001 238.982 512.001 256.655C512.001 274.329 497.674 288.655 480 288.655Z" fill="black"/>
<path d="M480 128.655H32.0002C14.3264 128.655 0 114.328 0 96.6545C0 78.9807 14.3264 64.6543 32.0002 64.6543H480.001C497.674 64.6543 512.001 78.9807 512.001 96.6545C512.001 114.328 497.674 128.655 480 128.655Z" fill="black"/>
</g>
<defs>
<clipPath id="clip0_455_826">
<rect width="512" height="512" fill="white" transform="translate(0 0.654785)"/>
</clipPath>
</defs>
</svg>
