<svg width="512" height="513" viewBox="0 0 512 513" fill="none" xmlns="http://www.w3.org/2000/svg">
<g clip-path="url(#clip0_263_1815)">
<mask id="mask0_263_1815" style="mask-type:luminance" maskUnits="userSpaceOnUse" x="0" y="0" width="512" height="513">
<path d="M512 0.303711H0V512.304H512V0.303711Z" fill="white"/>
</mask>
<g mask="url(#mask0_263_1815)">
<path d="M483.835 28.4678C465.065 9.69291 442.45 0.303711 416.008 0.303711H96.0053C69.5633 0.303711 46.9484 9.69291 28.17 28.4678C9.39506 47.2462 0.00585938 69.8599 0.00585938 96.3031V416.302C0.00585938 442.743 9.39506 465.359 28.17 484.137C46.9484 502.916 69.5633 512.305 96.0053 512.305H416.004C442.446 512.305 465.061 502.916 483.831 484.137C502.61 465.359 511.999 442.744 511.999 416.302V96.3031C511.998 69.8599 502.609 47.2427 483.835 28.4678ZM419.328 388.941C414.662 399.162 404.162 408.055 387.832 415.614C371.498 423.174 356.994 426.953 344.324 426.953C340.768 426.953 336.989 426.679 332.99 426.123C328.99 425.564 325.607 425.012 322.829 424.456C320.053 423.9 316.381 422.902 311.83 421.455C307.271 420.015 303.99 418.9 301.997 418.123C299.991 417.348 296.327 415.959 290.998 413.96C285.663 411.954 282.326 410.732 281.001 410.296C244.557 396.955 208.941 372.903 174.165 338.127C139.389 303.343 115.332 267.735 101.998 231.297C101.557 229.962 100.334 226.628 98.3322 221.297C96.3334 215.967 94.9405 212.298 94.163 210.3C93.3901 208.3 92.2774 205.022 90.832 200.469C89.3878 195.913 88.3907 192.249 87.8338 189.468C87.2758 186.694 86.7247 183.307 86.1678 179.306C85.6121 175.305 85.3353 171.522 85.3353 167.969C85.3353 155.301 89.1146 140.802 96.672 124.468C104.228 108.137 113.115 97.6376 123.339 92.9699C135.117 88.0791 146.339 85.6343 157.007 85.6343C159.448 85.6343 161.229 85.8585 162.337 86.3021C163.45 86.7516 165.284 88.7469 167.841 92.3032C170.397 95.8595 173.174 100.358 176.173 105.803C179.174 111.25 182.118 116.528 185.007 121.637C187.895 126.747 190.674 131.8 193.342 136.804C196.008 141.8 197.674 144.971 198.34 146.3C199.006 147.417 200.452 149.525 202.672 152.638C204.893 155.747 206.564 158.521 207.673 160.969C208.782 163.413 209.339 165.747 209.339 167.969C209.339 171.307 207.059 175.361 202.504 180.135C197.947 184.913 192.947 189.304 187.502 193.305C182.056 197.307 177.058 201.585 172.502 206.141C167.95 210.693 165.67 214.415 165.67 217.305C165.67 218.861 166.059 220.693 166.838 222.804C167.615 224.92 168.338 226.642 169.005 227.973C169.671 229.305 170.729 231.195 172.171 233.642C173.615 236.089 174.562 237.643 175.003 238.311C187.224 260.311 201.282 279.256 217.167 295.147C233.059 311.041 252.001 325.092 274.004 337.314C274.666 337.763 276.225 338.705 278.679 340.152C281.12 341.59 283.014 342.645 284.345 343.312C285.68 343.979 287.397 344.703 289.511 345.474C291.626 346.25 293.459 346.641 295.021 346.641C298.566 346.641 303.456 342.977 309.685 335.645C315.906 328.306 322.243 321.03 328.688 313.806C335.128 306.59 340.345 302.979 344.353 302.979C346.574 302.979 348.903 303.531 351.357 304.641C353.803 305.752 356.575 307.422 359.684 309.643C362.8 311.873 364.91 313.311 366.021 313.987L383.68 323.644C395.459 329.869 405.292 335.367 413.183 340.146C421.075 344.924 425.354 348.2 426.021 349.975C426.464 351.085 426.68 352.868 426.68 355.313C426.672 365.97 424.226 377.193 419.328 388.941Z" fill="#292524"/>
</g>
</g>
<defs>
<clipPath id="clip0_263_1815">
<rect width="512" height="513" fill="white"/>
</clipPath>
</defs>
</svg>
