<svg xmlns="http://www.w3.org/2000/svg" version="1.1" xmlns:xlink="http://www.w3.org/1999/xlink" xmlns:svgjs="http://svgjs.dev/svgjs" width="512" height="512"><svg id="SvgjsSvg1014" height="512" viewBox="0 0 64 64" width="512" xmlns="http://www.w3.org/2000/svg" data-name="Layer 3"><path d="m63 33v-2h-22.08a6.955 6.955 0 0 0 -1.32-3.185l17.107-17.108-1.414-1.414-17.109 17.107a6.958 6.958 0 0 0 -4.184-1.4v2a5 5 0 0 1 0 10v2a6.956 6.956 0 0 0 4.185-1.4l17.108 17.107 1.414-1.414-17.107-17.109a6.956 6.956 0 0 0 1.32-3.184z" fill="#62c1ea"></path><path d="m9 36.001v-8.001l-7 4.001z" fill="#f9cb52"></path><path d="m10 39.001 3 4-6 1z" fill="#ed8213"></path><path d="m15 46.001 5 4-7 3z" fill="#f9cb52"></path><path d="m23 51.001 5 1-4.001 4.999z" fill="#ed8213"></path><path d="m10 25.001 3-4-6-1z" fill="#ed8213"></path><path d="m15 18.001 5-4-7-3z" fill="#f9cb52"></path><path d="m23 13.001 5-1-4.001-4.999z" fill="#ed8213"></path><path d="m61.293 39.707-7-7a1 1 0 0 1 .057-1.467l7-6 1.3 1.52-6.181 5.3 6.237 6.236z" fill="#62c1ea"></path><path d="m59.293 43.707-11-11a1 1 0 0 1 0-1.414l11-11 1.414 1.414-10.293 10.293 10.293 10.293z" fill="#3091d0"></path><path d="m58 17h-8a1 1 0 0 1 -1-1v-8h2v7h7z" fill="#62c1ea"></path><path d="m56 23h-12a1 1 0 0 1 -1-1v-12h2v11h11z" fill="#3091d0"></path><path d="m51 56h-2v-8a1 1 0 0 1 1-1h8v2h-7z" fill="#62c1ea"></path><path d="m45 54h-2v-12a1 1 0 0 1 1-1h12v2h-11z" fill="#3091d0"></path><path d="m36 53.89h2v9.22h-2z" fill="#62c1ea" transform="matrix(.759 -.651 .651 .759 -29.164 38.163)"></path><path d="m38.5 46.722h2v15.556h-2z" fill="#3091d0" transform="matrix(.707 -.707 .707 .707 -26.968 43.893)"></path><path d="m32.39 4.5h9.22v2h-9.22z" fill="#3091d0" transform="matrix(.651 -.759 .759 .651 8.753 30.022)"></path><path d="m31.722 8.5h15.556v2h-15.556z" fill="#62c1ea" transform="matrix(.707 -.707 .707 .707 4.852 30.713)"></path><path d="m30 16.031q-.5-.031-1-.031a16 16 0 0 0 0 32q.5 0 1-.031" fill="#e9353f"></path><path d="m16.784 21.679a15.966 15.966 0 0 0 13.216 23.271v-28.919q-.5-.031-1-.031a15.958 15.958 0 0 0 -12.216 5.679z" fill="#ff4b50"></path><path d="m29 1h2v62h-2z" fill="#93add1"></path><path d="m33 1h2v62h-2z" fill="#93add1"></path><path d="m1 32a1 1 0 0 0 .5.868l7 4a1 1 0 0 0 1.5-.868v-8a1 1 0 0 0 -1.5-.868l-7 4a1 1 0 0 0 -.5.868zm7-2.277v4.553l-3.984-2.276z"></path><path d="m13.928 43.373a1 1 0 0 0 -.128-.973l-3-4a.983.983 0 0 0 -.852-.4 1 1 0 0 0 -.8.484l-3 5a1 1 0 0 0 .852 1.516 1.04 1.04 0 0 0 .165-.014l6-1a1 1 0 0 0 .763-.613zm-4.956-.715 1.12-1.867 1.121 1.494z"></path><path d="m13 54a.989.989 0 0 0 .394-.081l7-3a1 1 0 0 0 .231-1.7l-5-4a1 1 0 0 0 -1.586.507l-2 7a1 1 0 0 0 .961 1.274zm2.549-6.28 2.523 2.018-3.532 1.515z"></path><path d="m28.2 51.021-5-1a1 1 0 0 0 -1.182 1.144l1 6a1 1 0 0 0 .734.8 1.036 1.036 0 0 0 .248.035 1 1 0 0 0 .781-.375l4-5a1 1 0 0 0 -.585-1.6zm-3.578 3.606-.393-2.361 1.967.393z"></path><path d="m6.173 19.438a1 1 0 0 0 -.03 1.078l3 5a1 1 0 0 0 .8.484h.057a1 1 0 0 0 .8-.4l3-4a1 1 0 0 0 -.635-1.586l-6-1a1 1 0 0 0 -.992.424zm5.04 2.279-1.121 1.494-1.12-1.867z"></path><path d="m15 19a1 1 0 0 0 .625-.219l5-4a1 1 0 0 0 -.231-1.7l-7-3a1 1 0 0 0 -1.355 1.193l2 7a1 1 0 0 0 .657.679 1.02 1.02 0 0 0 .304.047zm3.072-4.738-2.523 2.018-1.009-3.531z"></path><path d="m23.2 13.981 5-1a1 1 0 0 0 .585-1.605l-4-5a1 1 0 0 0 -1.767.461l-1 6a1 1 0 0 0 1.182 1.144zm1.422-4.606 1.574 1.968-1.967.393z"></path><path d="m31 63v-62h-2v14a17 17 0 0 0 0 34v14zm-17-31a15.017 15.017 0 0 1 15-15v30a15.017 15.017 0 0 1 -15-15z"></path><path d="m62.651 26.76-1.3-1.52-6.722 5.76h-3.215l9.293-9.293-1.414-1.414-10.707 10.707h-7.666a6.955 6.955 0 0 0 -1.32-3.185l4.814-4.815h11.586v-2h-9.586l4-4h7.586v-2h-5.586l4.293-4.293-1.414-1.414-4.293 4.293v-5.586h-2v7.586l-4 4v-9.586h-2v11.586l-4.816 4.814a6.956 6.956 0 0 0 -3.184-1.32v-9.666l10.707-10.707-1.414-1.414-9.293 9.293v-3.216l5.759-6.72-1.518-1.3-4.241 4.95v-5.3h-2v62h2v-5.3l4.241 4.947 1.518-1.3-5.759-6.717v-3.216l9.293 9.293 1.414-1.414-10.707-10.707v-9.666a6.955 6.955 0 0 0 3.185-1.32l4.815 4.814v11.586h2v-9.586l4 4v7.586h2v-5.586l4.293 4.293 1.414-1.414-4.293-4.293h5.586v-2h-7.586l-4-4h9.586v-2h-11.586l-4.814-4.816a6.956 6.956 0 0 0 1.32-3.184h7.666l10.707 10.707 1.414-1.414-9.293-9.293h3.171l6.708 6.707 1.414-1.414-5.293-5.293h5.586v-2h-5.3zm-27.651 10.14v-9.8a5 5 0 0 1 0 9.8z"></path></svg><style>@media (prefers-color-scheme: light) { :root { filter: none; } }
@media (prefers-color-scheme: dark) { :root { filter: none; } }
</style></svg>