<?xml version="1.0" encoding="UTF-8" standalone="no"?>
<!-- Created with Inkscape (http://www.inkscape.org/) -->

<svg
   version="1.1"
   id="svg3729"
   xml:space="preserve"
   width="682.66669"
   height="682.66669"
   viewBox="0 0 682.66669 682.66669"
   xmlns="http://www.w3.org/2000/svg"
   xmlns:svg="http://www.w3.org/2000/svg"><defs
     id="defs3733"><clipPath
       clipPathUnits="userSpaceOnUse"
       id="clipPath3755"><path
         d="M 0,512 H 512 V 0 H 0 Z"
         id="path3753" /></clipPath></defs><g
     id="g3735"
     transform="matrix(1.3333333,0,0,-1.3333333,0,682.66667)"><path
       d="m 97.5,22.5 h 347 v 60 h -347 z"
       style="fill:#757478;fill-opacity:1;fill-rule:nonzero;stroke:none"
       id="path3737" /><path
       d="m 67.5,22.5 h 347 v 60 h -347 z"
       style="fill:#8b8a91;fill-opacity:1;fill-rule:nonzero;stroke:none"
       id="path3739" /><g
       id="g3741"
       transform="translate(384.5,504.5)"><path
         d="M 0,0 H -30 L -128.5,-107 30,-47 Z"
         style="fill:#bccdd4;fill-opacity:1;fill-rule:nonzero;stroke:none"
         id="path3743" /></g><g
       id="g3745"
       transform="translate(354.5,504.5)"><path
         d="M 0,0 H -227 L -257,-47 -98.5,-107 30,-47 Z"
         style="fill:#cbe1e8;fill-opacity:1;fill-rule:nonzero;stroke:none"
         id="path3747" /></g><g
       id="g3749"><g
         id="g3751"
         clip-path="url(#clipPath3755)"><g
           id="g3757"
           transform="translate(444.5,457.5)"><path
             d="m 0,0 h -377 c -16.568,0 -30,-13.432 -30,-30 v -330 c 0,-16.568 13.432,-30 30,-30 H 0 c 16.568,0 30,13.432 30,30 V -30 C 30,-13.432 16.568,0 0,0"
             style="fill:#dbf7ff;fill-opacity:1;fill-rule:nonzero;stroke:none"
             id="path3759" /></g><g
           id="g3761"
           transform="translate(82.5,142.5)"><path
             d="m 0,0 15,-45 h 30 v 30 z"
             style="fill:#8b8a91;fill-opacity:1;fill-rule:nonzero;stroke:none"
             id="path3763" /></g><g
           id="g3765"
           transform="translate(67.5,127.5)"><path
             d="M 0,0 V -30 H 30 V 15 Z"
             style="fill:#9aa1ab;fill-opacity:1;fill-rule:nonzero;stroke:none"
             id="path3767" /></g><g
           id="g3769"
           transform="translate(82.5,172.5)"><path
             d="m 0,0 15,-45 h 30 v 30 z"
             style="fill:#757478;fill-opacity:1;fill-rule:nonzero;stroke:none"
             id="path3771" /></g><g
           id="g3773"
           transform="translate(67.5,157.5)"><path
             d="M 0,0 V -30 H 30 V 15 Z"
             style="fill:#8b8a91;fill-opacity:1;fill-rule:nonzero;stroke:none"
             id="path3775" /></g><g
           id="g3777"
           transform="translate(82.5,202.5)"><path
             d="m 0,0 15,-45 h 30 v 30 z"
             style="fill:#8b8a91;fill-opacity:1;fill-rule:nonzero;stroke:none"
             id="path3779" /></g><g
           id="g3781"
           transform="translate(67.5,187.5)"><path
             d="M 0,0 V -30 H 30 V 15 Z"
             style="fill:#9aa1ab;fill-opacity:1;fill-rule:nonzero;stroke:none"
             id="path3783" /></g><g
           id="g3785"
           transform="translate(82.5,232.5)"><path
             d="m 0,0 15,-45 h 30 v 30 z"
             style="fill:#757478;fill-opacity:1;fill-rule:nonzero;stroke:none"
             id="path3787" /></g><g
           id="g3789"
           transform="translate(67.5,217.5)"><path
             d="M 0,0 V -30 H 30 V 15 Z"
             style="fill:#8b8a91;fill-opacity:1;fill-rule:nonzero;stroke:none"
             id="path3791" /></g><g
           id="g3793"
           transform="translate(82.5,262.5)"><path
             d="m 0,0 15,-45 h 30 v 30 z"
             style="fill:#8b8a91;fill-opacity:1;fill-rule:nonzero;stroke:none"
             id="path3795" /></g><g
           id="g3797"
           transform="translate(67.5,247.5)"><path
             d="M 0,0 V -30 H 30 V 15 Z"
             style="fill:#9aa1ab;fill-opacity:1;fill-rule:nonzero;stroke:none"
             id="path3799" /></g><g
           id="g3801"
           transform="translate(82.5,292.5)"><path
             d="m 0,0 15,-45 h 30 v 30 z"
             style="fill:#757478;fill-opacity:1;fill-rule:nonzero;stroke:none"
             id="path3803" /></g><g
           id="g3805"
           transform="translate(67.5,277.5)"><path
             d="M 0,0 V -30 H 30 V 15 Z"
             style="fill:#8b8a91;fill-opacity:1;fill-rule:nonzero;stroke:none"
             id="path3807" /></g><g
           id="g3809"
           transform="translate(82.5,322.5)"><path
             d="m 0,0 15,-45 h 30 v 30 z"
             style="fill:#8b8a91;fill-opacity:1;fill-rule:nonzero;stroke:none"
             id="path3811" /></g><g
           id="g3813"
           transform="translate(67.5,307.5)"><path
             d="M 0,0 V -30 H 30 V 15 Z"
             style="fill:#9aa1ab;fill-opacity:1;fill-rule:nonzero;stroke:none"
             id="path3815" /></g><g
           id="g3817"
           transform="translate(82.5,352.5)"><path
             d="m 0,0 15,-45 h 30 v 30 z"
             style="fill:#757478;fill-opacity:1;fill-rule:nonzero;stroke:none"
             id="path3819" /></g><g
           id="g3821"
           transform="translate(67.5,337.5)"><path
             d="M 0,0 V -30 H 30 V 15 Z"
             style="fill:#8b8a91;fill-opacity:1;fill-rule:nonzero;stroke:none"
             id="path3823" /></g><g
           id="g3825"
           transform="translate(82.5,382.5)"><path
             d="m 0,0 15,-45 h 30 v 30 z"
             style="fill:#8b8a91;fill-opacity:1;fill-rule:nonzero;stroke:none"
             id="path3827" /></g><g
           id="g3829"
           transform="translate(67.5,367.5)"><path
             d="M 0,0 V -30 H 30 V 15 Z"
             style="fill:#9aa1ab;fill-opacity:1;fill-rule:nonzero;stroke:none"
             id="path3831" /></g><g
           id="g3833"
           transform="translate(82.5,412.5)"><path
             d="m 0,0 15,-45 h 30 v 30 z"
             style="fill:#757478;fill-opacity:1;fill-rule:nonzero;stroke:none"
             id="path3835" /></g><g
           id="g3837"
           transform="translate(67.5,397.5)"><path
             d="M 0,0 V -30 H 30 V 15 Z"
             style="fill:#8b8a91;fill-opacity:1;fill-rule:nonzero;stroke:none"
             id="path3839" /></g><g
           id="g3841"
           transform="translate(97.5,427.5)"><path
             d="M 0,0 -15,-15 0,-30 H 30 V 0 Z"
             style="fill:#8b8a91;fill-opacity:1;fill-rule:nonzero;stroke:none"
             id="path3843" /></g><path
           d="m 67.5,397.5 h 30 v 30 h -30 z"
           style="fill:#9aa1ab;fill-opacity:1;fill-rule:nonzero;stroke:none"
           id="path3845" /><g
           id="g3847"
           transform="translate(399.5,142.5)"><path
             d="m 0,0 15,-45 h 30 v 30 z"
             style="fill:#8b8a91;fill-opacity:1;fill-rule:nonzero;stroke:none"
             id="path3849" /></g><g
           id="g3851"
           transform="translate(384.5,127.5)"><path
             d="M 0,0 V -30 H 30 V 15 Z"
             style="fill:#9aa1ab;fill-opacity:1;fill-rule:nonzero;stroke:none"
             id="path3853" /></g><g
           id="g3855"
           transform="translate(399.5,172.5)"><path
             d="m 0,0 15,-45 h 30 v 30 z"
             style="fill:#757478;fill-opacity:1;fill-rule:nonzero;stroke:none"
             id="path3857" /></g><g
           id="g3859"
           transform="translate(384.5,157.5)"><path
             d="M 0,0 V -30 H 30 V 15 Z"
             style="fill:#8b8a91;fill-opacity:1;fill-rule:nonzero;stroke:none"
             id="path3861" /></g><g
           id="g3863"
           transform="translate(399.5,202.5)"><path
             d="m 0,0 15,-45 h 30 v 30 z"
             style="fill:#8b8a91;fill-opacity:1;fill-rule:nonzero;stroke:none"
             id="path3865" /></g><g
           id="g3867"
           transform="translate(384.5,187.5)"><path
             d="M 0,0 V -30 H 30 V 15 Z"
             style="fill:#9aa1ab;fill-opacity:1;fill-rule:nonzero;stroke:none"
             id="path3869" /></g><g
           id="g3871"
           transform="translate(399.5,232.5)"><path
             d="m 0,0 15,-45 h 30 v 30 z"
             style="fill:#757478;fill-opacity:1;fill-rule:nonzero;stroke:none"
             id="path3873" /></g><g
           id="g3875"
           transform="translate(384.5,217.5)"><path
             d="M 0,0 V -30 H 30 V 15 Z"
             style="fill:#8b8a91;fill-opacity:1;fill-rule:nonzero;stroke:none"
             id="path3877" /></g><g
           id="g3879"
           transform="translate(399.5,262.5)"><path
             d="m 0,0 15,-45 h 30 v 30 z"
             style="fill:#8b8a91;fill-opacity:1;fill-rule:nonzero;stroke:none"
             id="path3881" /></g><g
           id="g3883"
           transform="translate(384.5,247.5)"><path
             d="M 0,0 V -30 H 30 V 15 Z"
             style="fill:#9aa1ab;fill-opacity:1;fill-rule:nonzero;stroke:none"
             id="path3885" /></g><g
           id="g3887"
           transform="translate(399.5,292.5)"><path
             d="m 0,0 15,-45 h 30 v 30 z"
             style="fill:#757478;fill-opacity:1;fill-rule:nonzero;stroke:none"
             id="path3889" /></g><g
           id="g3891"
           transform="translate(384.5,277.5)"><path
             d="M 0,0 V -30 H 30 V 15 Z"
             style="fill:#8b8a91;fill-opacity:1;fill-rule:nonzero;stroke:none"
             id="path3893" /></g><g
           id="g3895"
           transform="translate(399.5,322.5)"><path
             d="m 0,0 15,-45 h 30 v 30 z"
             style="fill:#8b8a91;fill-opacity:1;fill-rule:nonzero;stroke:none"
             id="path3897" /></g><g
           id="g3899"
           transform="translate(384.5,307.5)"><path
             d="M 0,0 V -30 H 30 V 15 Z"
             style="fill:#9aa1ab;fill-opacity:1;fill-rule:nonzero;stroke:none"
             id="path3901" /></g><g
           id="g3903"
           transform="translate(399.5,352.5)"><path
             d="m 0,0 15,-45 h 30 v 30 z"
             style="fill:#757478;fill-opacity:1;fill-rule:nonzero;stroke:none"
             id="path3905" /></g><g
           id="g3907"
           transform="translate(384.5,337.5)"><path
             d="M 0,0 V -30 H 30 V 15 Z"
             style="fill:#8b8a91;fill-opacity:1;fill-rule:nonzero;stroke:none"
             id="path3909" /></g><g
           id="g3911"
           transform="translate(399.5,382.5)"><path
             d="m 0,0 15,-45 h 30 v 30 z"
             style="fill:#8b8a91;fill-opacity:1;fill-rule:nonzero;stroke:none"
             id="path3913" /></g><g
           id="g3915"
           transform="translate(384.5,367.5)"><path
             d="M 0,0 V -30 H 30 V 15 Z"
             style="fill:#9aa1ab;fill-opacity:1;fill-rule:nonzero;stroke:none"
             id="path3917" /></g><g
           id="g3919"
           transform="translate(399.5,412.5)"><path
             d="m 0,0 15,-45 h 30 v 30 z"
             style="fill:#757478;fill-opacity:1;fill-rule:nonzero;stroke:none"
             id="path3921" /></g><g
           id="g3923"
           transform="translate(384.5,397.5)"><path
             d="M 0,0 V -30 H 30 V 15 Z"
             style="fill:#8b8a91;fill-opacity:1;fill-rule:nonzero;stroke:none"
             id="path3925" /></g><g
           id="g3927"
           transform="translate(414.5,427.5)"><path
             d="M 0,0 -15,-15 0,-30 H 30 V 0 Z"
             style="fill:#8b8a91;fill-opacity:1;fill-rule:nonzero;stroke:none"
             id="path3929" /></g><path
           d="m 384.5,397.5 h 30 v 30 h -30 z"
           style="fill:#9aa1ab;fill-opacity:1;fill-rule:nonzero;stroke:none"
           id="path3931" /><g
           id="g3933"
           transform="translate(309.5,142.5)"><path
             d="m 0,0 15,-45 h 30 v 30 z"
             style="fill:#8b8a91;fill-opacity:1;fill-rule:nonzero;stroke:none"
             id="path3935" /></g><g
           id="g3937"
           transform="translate(157.5,127.5)"><path
             d="M 0,0 V -30 H 167 V 15 H 15 Z"
             style="fill:#9aa1ab;fill-opacity:1;fill-rule:nonzero;stroke:none"
             id="path3939" /></g><g
           id="g3941"
           transform="translate(309.5,172.5)"><path
             d="m 0,0 15,-45 h 30 v 30 z"
             style="fill:#757478;fill-opacity:1;fill-rule:nonzero;stroke:none"
             id="path3943" /></g><g
           id="g3945"
           transform="translate(157.5,157.5)"><path
             d="M 0,0 V -30 H 167 V 15 H 15 Z"
             style="fill:#8b8a91;fill-opacity:1;fill-rule:nonzero;stroke:none"
             id="path3947" /></g><g
           id="g3949"
           transform="translate(309.5,202.5)"><path
             d="m 0,0 15,-45 h 30 v 30 z"
             style="fill:#8b8a91;fill-opacity:1;fill-rule:nonzero;stroke:none"
             id="path3951" /></g><g
           id="g3953"
           transform="translate(157.5,187.5)"><path
             d="M 0,0 V -30 H 167 V 15 H 15 Z"
             style="fill:#9aa1ab;fill-opacity:1;fill-rule:nonzero;stroke:none"
             id="path3955" /></g><g
           id="g3957"
           transform="translate(309.5,232.5)"><path
             d="m 0,0 15,-45 h 30 v 30 z"
             style="fill:#757478;fill-opacity:1;fill-rule:nonzero;stroke:none"
             id="path3959" /></g><g
           id="g3961"
           transform="translate(157.5,217.5)"><path
             d="M 0,0 V -30 H 167 V 15 H 15 Z"
             style="fill:#8b8a91;fill-opacity:1;fill-rule:nonzero;stroke:none"
             id="path3963" /></g><g
           id="g3965"
           transform="translate(309.5,262.5)"><path
             d="m 0,0 15,-45 h 30 v 30 z"
             style="fill:#8b8a91;fill-opacity:1;fill-rule:nonzero;stroke:none"
             id="path3967" /></g><g
           id="g3969"
           transform="translate(157.5,247.5)"><path
             d="M 0,0 V -30 H 167 V 15 H 15 Z"
             style="fill:#9aa1ab;fill-opacity:1;fill-rule:nonzero;stroke:none"
             id="path3971" /></g><g
           id="g3973"
           transform="translate(309.5,292.5)"><path
             d="m 0,0 15,-45 h 30 v 30 z"
             style="fill:#757478;fill-opacity:1;fill-rule:nonzero;stroke:none"
             id="path3975" /></g><g
           id="g3977"
           transform="translate(157.5,277.5)"><path
             d="M 0,0 V -30 H 167 V 15 H 15 Z"
             style="fill:#8b8a91;fill-opacity:1;fill-rule:nonzero;stroke:none"
             id="path3979" /></g><g
           id="g3981"
           transform="translate(309.5,322.5)"><path
             d="m 0,0 15,-45 h 30 v 30 z"
             style="fill:#8b8a91;fill-opacity:1;fill-rule:nonzero;stroke:none"
             id="path3983" /></g><g
           id="g3985"
           transform="translate(157.5,307.5)"><path
             d="M 0,0 V -30 H 167 V 15 H 15 Z"
             style="fill:#9aa1ab;fill-opacity:1;fill-rule:nonzero;stroke:none"
             id="path3987" /></g><g
           id="g3989"
           transform="translate(309.5,352.5)"><path
             d="m 0,0 15,-45 h 30 v 30 z"
             style="fill:#757478;fill-opacity:1;fill-rule:nonzero;stroke:none"
             id="path3991" /></g><g
           id="g3993"
           transform="translate(157.5,337.5)"><path
             d="M 0,0 V -30 H 167 V 15 H 15 Z"
             style="fill:#8b8a91;fill-opacity:1;fill-rule:nonzero;stroke:none"
             id="path3995" /></g><g
           id="g3997"
           transform="translate(309.5,382.5)"><path
             d="m 0,0 15,-45 h 30 v 30 z"
             style="fill:#8b8a91;fill-opacity:1;fill-rule:nonzero;stroke:none"
             id="path3999" /></g><g
           id="g4001"
           transform="translate(157.5,367.5)"><path
             d="M 0,0 V -30 H 167 V 15 H 15 Z"
             style="fill:#9aa1ab;fill-opacity:1;fill-rule:nonzero;stroke:none"
             id="path4003" /></g><g
           id="g4005"
           transform="translate(309.5,412.5)"><path
             d="m 0,0 15,-45 h 30 v 30 z"
             style="fill:#757478;fill-opacity:1;fill-rule:nonzero;stroke:none"
             id="path4007" /></g><g
           id="g4009"
           transform="translate(157.5,397.5)"><path
             d="M 0,0 V -30 H 167 V 15 H 15 Z"
             style="fill:#8b8a91;fill-opacity:1;fill-rule:nonzero;stroke:none"
             id="path4011" /></g><g
           id="g4013"
           transform="translate(324.5,427.5)"><path
             d="M 0,0 -30,-15 0,-30 H 30 V 0 Z"
             style="fill:#8b8a91;fill-opacity:1;fill-rule:nonzero;stroke:none"
             id="path4015" /></g><path
           d="m 157.5,397.5 h 167 v 30 h -167 z"
           style="fill:#9aa1ab;fill-opacity:1;fill-rule:nonzero;stroke:none"
           id="path4017" /><g
           id="g4019"
           transform="translate(474.5,37.5)"><path
             d="M 0,0 -30,-15 0,-30 H 30 V 0 Z"
             style="fill:#fff0b8;fill-opacity:1;fill-rule:nonzero;stroke:none"
             id="path4021" /></g><path
           d="m 7.5,7.5 h 467 v 30 H 7.5 Z"
           style="fill:#fff9e0;fill-opacity:1;fill-rule:nonzero;stroke:none"
           id="path4023" /><g
           id="g4025"
           transform="translate(97.5,457.5)"><path
             d="M 0,0 30,47 H 287 L 317,0"
             style="fill:none;stroke:#000000;stroke-width:15;stroke-linecap:round;stroke-linejoin:round;stroke-miterlimit:10;stroke-dasharray:none;stroke-opacity:1"
             id="path4027" /></g><path
           d="M 504.5,7.5 H 7.5 v 30 h 497 z"
           style="fill:none;stroke:#000000;stroke-width:15;stroke-linecap:round;stroke-linejoin:round;stroke-miterlimit:10;stroke-dasharray:none;stroke-opacity:1"
           id="path4029" /><path
           d="m 67.5,97.5 h 60 v 330 h -60 z"
           style="fill:none;stroke:#000000;stroke-width:15;stroke-linecap:round;stroke-linejoin:round;stroke-miterlimit:10;stroke-dasharray:none;stroke-opacity:1"
           id="path4031" /><path
           d="m 384.5,97.5 h 60 v 330 h -60 z"
           style="fill:none;stroke:#000000;stroke-width:15;stroke-linecap:round;stroke-linejoin:round;stroke-miterlimit:10;stroke-dasharray:none;stroke-opacity:1"
           id="path4033" /><path
           d="m 157.5,97.5 h 197 v 330 h -197 z"
           style="fill:none;stroke:#000000;stroke-width:15;stroke-linecap:round;stroke-linejoin:round;stroke-miterlimit:10;stroke-dasharray:none;stroke-opacity:1"
           id="path4035" /><g
           id="g4037"
           transform="translate(67.5,127.5)"><path
             d="M 0,0 H 60"
             style="fill:none;stroke:#000000;stroke-width:15;stroke-linecap:round;stroke-linejoin:round;stroke-miterlimit:10;stroke-dasharray:none;stroke-opacity:1"
             id="path4039" /></g><g
           id="g4041"
           transform="translate(384.5,127.5)"><path
             d="M 0,0 H 60"
             style="fill:none;stroke:#000000;stroke-width:15;stroke-linecap:round;stroke-linejoin:round;stroke-miterlimit:10;stroke-dasharray:none;stroke-opacity:1"
             id="path4043" /></g><g
           id="g4045"
           transform="translate(157.5,127.5)"><path
             d="M 0,0 H 197"
             style="fill:none;stroke:#000000;stroke-width:15;stroke-linecap:round;stroke-linejoin:round;stroke-miterlimit:10;stroke-dasharray:none;stroke-opacity:1"
             id="path4047" /></g><g
           id="g4049"
           transform="translate(67.5,157.5)"><path
             d="M 0,0 H 60"
             style="fill:none;stroke:#000000;stroke-width:15;stroke-linecap:round;stroke-linejoin:round;stroke-miterlimit:10;stroke-dasharray:none;stroke-opacity:1"
             id="path4051" /></g><g
           id="g4053"
           transform="translate(384.5,157.5)"><path
             d="M 0,0 H 60"
             style="fill:none;stroke:#000000;stroke-width:15;stroke-linecap:round;stroke-linejoin:round;stroke-miterlimit:10;stroke-dasharray:none;stroke-opacity:1"
             id="path4055" /></g><g
           id="g4057"
           transform="translate(157.5,157.5)"><path
             d="M 0,0 H 197"
             style="fill:none;stroke:#000000;stroke-width:15;stroke-linecap:round;stroke-linejoin:round;stroke-miterlimit:10;stroke-dasharray:none;stroke-opacity:1"
             id="path4059" /></g><g
           id="g4061"
           transform="translate(67.5,187.5)"><path
             d="M 0,0 H 60"
             style="fill:none;stroke:#000000;stroke-width:15;stroke-linecap:round;stroke-linejoin:round;stroke-miterlimit:10;stroke-dasharray:none;stroke-opacity:1"
             id="path4063" /></g><g
           id="g4065"
           transform="translate(384.5,187.5)"><path
             d="M 0,0 H 60"
             style="fill:none;stroke:#000000;stroke-width:15;stroke-linecap:round;stroke-linejoin:round;stroke-miterlimit:10;stroke-dasharray:none;stroke-opacity:1"
             id="path4067" /></g><g
           id="g4069"
           transform="translate(157.5,187.5)"><path
             d="M 0,0 H 197"
             style="fill:none;stroke:#000000;stroke-width:15;stroke-linecap:round;stroke-linejoin:round;stroke-miterlimit:10;stroke-dasharray:none;stroke-opacity:1"
             id="path4071" /></g><g
           id="g4073"
           transform="translate(67.5,217.5)"><path
             d="M 0,0 H 60"
             style="fill:none;stroke:#000000;stroke-width:15;stroke-linecap:round;stroke-linejoin:round;stroke-miterlimit:10;stroke-dasharray:none;stroke-opacity:1"
             id="path4075" /></g><g
           id="g4077"
           transform="translate(384.5,217.5)"><path
             d="M 0,0 H 60"
             style="fill:none;stroke:#000000;stroke-width:15;stroke-linecap:round;stroke-linejoin:round;stroke-miterlimit:10;stroke-dasharray:none;stroke-opacity:1"
             id="path4079" /></g><g
           id="g4081"
           transform="translate(157.5,217.5)"><path
             d="M 0,0 H 197"
             style="fill:none;stroke:#000000;stroke-width:15;stroke-linecap:round;stroke-linejoin:round;stroke-miterlimit:10;stroke-dasharray:none;stroke-opacity:1"
             id="path4083" /></g><g
           id="g4085"
           transform="translate(67.5,247.5)"><path
             d="M 0,0 H 60"
             style="fill:none;stroke:#000000;stroke-width:15;stroke-linecap:round;stroke-linejoin:round;stroke-miterlimit:10;stroke-dasharray:none;stroke-opacity:1"
             id="path4087" /></g><g
           id="g4089"
           transform="translate(384.5,247.5)"><path
             d="M 0,0 H 60"
             style="fill:none;stroke:#000000;stroke-width:15;stroke-linecap:round;stroke-linejoin:round;stroke-miterlimit:10;stroke-dasharray:none;stroke-opacity:1"
             id="path4091" /></g><g
           id="g4093"
           transform="translate(157.5,247.5)"><path
             d="M 0,0 H 197"
             style="fill:none;stroke:#000000;stroke-width:15;stroke-linecap:round;stroke-linejoin:round;stroke-miterlimit:10;stroke-dasharray:none;stroke-opacity:1"
             id="path4095" /></g><g
           id="g4097"
           transform="translate(67.5,277.5)"><path
             d="M 0,0 H 60"
             style="fill:none;stroke:#000000;stroke-width:15;stroke-linecap:round;stroke-linejoin:round;stroke-miterlimit:10;stroke-dasharray:none;stroke-opacity:1"
             id="path4099" /></g><g
           id="g4101"
           transform="translate(384.5,277.5)"><path
             d="M 0,0 H 60"
             style="fill:none;stroke:#000000;stroke-width:15;stroke-linecap:round;stroke-linejoin:round;stroke-miterlimit:10;stroke-dasharray:none;stroke-opacity:1"
             id="path4103" /></g><g
           id="g4105"
           transform="translate(157.5,277.5)"><path
             d="M 0,0 H 197"
             style="fill:none;stroke:#000000;stroke-width:15;stroke-linecap:round;stroke-linejoin:round;stroke-miterlimit:10;stroke-dasharray:none;stroke-opacity:1"
             id="path4107" /></g><g
           id="g4109"
           transform="translate(67.5,307.5)"><path
             d="M 0,0 H 60"
             style="fill:none;stroke:#000000;stroke-width:15;stroke-linecap:round;stroke-linejoin:round;stroke-miterlimit:10;stroke-dasharray:none;stroke-opacity:1"
             id="path4111" /></g><g
           id="g4113"
           transform="translate(384.5,307.5)"><path
             d="M 0,0 H 60"
             style="fill:none;stroke:#000000;stroke-width:15;stroke-linecap:round;stroke-linejoin:round;stroke-miterlimit:10;stroke-dasharray:none;stroke-opacity:1"
             id="path4115" /></g><g
           id="g4117"
           transform="translate(157.5,307.5)"><path
             d="M 0,0 H 197"
             style="fill:none;stroke:#000000;stroke-width:15;stroke-linecap:round;stroke-linejoin:round;stroke-miterlimit:10;stroke-dasharray:none;stroke-opacity:1"
             id="path4119" /></g><g
           id="g4121"
           transform="translate(67.5,337.5)"><path
             d="M 0,0 H 60"
             style="fill:none;stroke:#000000;stroke-width:15;stroke-linecap:round;stroke-linejoin:round;stroke-miterlimit:10;stroke-dasharray:none;stroke-opacity:1"
             id="path4123" /></g><g
           id="g4125"
           transform="translate(384.5,337.5)"><path
             d="M 0,0 H 60"
             style="fill:none;stroke:#000000;stroke-width:15;stroke-linecap:round;stroke-linejoin:round;stroke-miterlimit:10;stroke-dasharray:none;stroke-opacity:1"
             id="path4127" /></g><g
           id="g4129"
           transform="translate(157.5,337.5)"><path
             d="M 0,0 H 197"
             style="fill:none;stroke:#000000;stroke-width:15;stroke-linecap:round;stroke-linejoin:round;stroke-miterlimit:10;stroke-dasharray:none;stroke-opacity:1"
             id="path4131" /></g><g
           id="g4133"
           transform="translate(67.5,367.5)"><path
             d="M 0,0 H 60"
             style="fill:none;stroke:#000000;stroke-width:15;stroke-linecap:round;stroke-linejoin:round;stroke-miterlimit:10;stroke-dasharray:none;stroke-opacity:1"
             id="path4135" /></g><g
           id="g4137"
           transform="translate(384.5,367.5)"><path
             d="M 0,0 H 60"
             style="fill:none;stroke:#000000;stroke-width:15;stroke-linecap:round;stroke-linejoin:round;stroke-miterlimit:10;stroke-dasharray:none;stroke-opacity:1"
             id="path4139" /></g><g
           id="g4141"
           transform="translate(157.5,367.5)"><path
             d="M 0,0 H 197"
             style="fill:none;stroke:#000000;stroke-width:15;stroke-linecap:round;stroke-linejoin:round;stroke-miterlimit:10;stroke-dasharray:none;stroke-opacity:1"
             id="path4143" /></g><g
           id="g4145"
           transform="translate(67.5,397.5)"><path
             d="M 0,0 H 60"
             style="fill:none;stroke:#000000;stroke-width:15;stroke-linecap:round;stroke-linejoin:round;stroke-miterlimit:10;stroke-dasharray:none;stroke-opacity:1"
             id="path4147" /></g><g
           id="g4149"
           transform="translate(384.5,397.5)"><path
             d="M 0,0 H 60"
             style="fill:none;stroke:#000000;stroke-width:15;stroke-linecap:round;stroke-linejoin:round;stroke-miterlimit:10;stroke-dasharray:none;stroke-opacity:1"
             id="path4151" /></g><g
           id="g4153"
           transform="translate(157.5,397.5)"><path
             d="M 0,0 H 197"
             style="fill:none;stroke:#000000;stroke-width:15;stroke-linecap:round;stroke-linejoin:round;stroke-miterlimit:10;stroke-dasharray:none;stroke-opacity:1"
             id="path4155" /></g><g
           id="g4157"
           transform="translate(97.5,67.5)"><path
             d="m 0,0 h 347 c 16.568,0 30,13.432 30,30 v 330 c 0,16.568 -13.432,30 -30,30 H -30 c -16.568,0 -30,-13.432 -30,-30 V 30 C -60,13.432 -46.568,0 -30,0 v -30"
             style="fill:none;stroke:#000000;stroke-width:15;stroke-linecap:round;stroke-linejoin:round;stroke-miterlimit:10;stroke-dasharray:none;stroke-opacity:1"
             id="path4159" /></g><g
           id="g4161"
           transform="translate(444.5,67.5)"><path
             d="M 0,0 V -30"
             style="fill:none;stroke:#000000;stroke-width:15;stroke-linecap:round;stroke-linejoin:round;stroke-miterlimit:10;stroke-dasharray:none;stroke-opacity:1"
             id="path4163" /></g></g></g></g></svg>
