<svg id="Capa_1" enable-background="new 0 0 512 512" height="512" viewBox="0 0 512 512" width="512" xmlns="http://www.w3.org/2000/svg"><g><g><path d="m439.617 504h-367.234c-11.046 0-20-8.954-20-20v-456c0-11.046 8.954-20 20-20h367.234c11.046 0 20 8.954 20 20v456c0 11.046-8.954 20-20 20z" fill="#b7b3b6"/><path d="m439.617 486h-367.234c-11.046 0-20-8.954-20-20v18c0 11.046 8.954 20 20 20h367.234c11.046 0 20-8.954 20-20v-18c0 11.046-8.954 20-20 20z" fill="#a8a7a8"/><path d="m98.36 49.796h317.955v412.408h-317.955z" fill="#e6e2e6"/><path d="m98.36 444.204h317.955v18h-317.955z" fill="#d8d1d7"/><path d="m349.849 237.488-69.944-117.703c-6.302-10.606-21.657-10.606-27.959 0l-69.944 117.703c-6.441 10.84 1.37 24.569 13.98 24.569h139.888c12.609 0 20.421-13.729 13.979-24.569z" fill="#f6e266"/><path d="m349.426 236.775c-2.834 4.291-7.672 7.282-13.556 7.282h-139.888c-5.884 0-10.722-2.991-13.556-7.282l-.424.713c-6.441 10.84 1.37 24.569 13.98 24.569h139.888c12.609 0 20.421-13.729 13.98-24.569z" fill="#ffc239"/><path d="m82.391 128.274h31.939v72.481h-31.939z" fill="#545454"/><path d="m82.391 311.244h31.939v72.481h-31.939z" fill="#545454"/><g fill="#494949"><path d="m82.391 182.756h31.939v18h-31.939z"/><path d="m82.391 365.726h31.939v18h-31.939z"/></g></g><g><path d="m439.977 0h-367.954c-15.193 0-27.553 12.36-27.553 27.554v456.892c0 15.194 12.36 27.554 27.553 27.554h258.343c4.15 0 7.515-3.364 7.515-7.515s-3.365-7.515-7.515-7.515h-258.343c-6.906 0-12.524-5.618-12.524-12.524v-456.892c0-6.906 5.618-12.524 12.524-12.524h367.953c6.906 0 12.525 5.618 12.525 12.524v456.892c0 6.906-5.618 12.524-12.525 12.524h-79.551c-4.15 0-7.515 3.364-7.515 7.515s3.365 7.515 7.515 7.515h79.551c15.193 0 27.554-12.36 27.554-27.554v-456.892c0-15.194-12.36-27.554-27.553-27.554z"/><path d="m98.052 470.122h318.577c4.15 0 7.515-3.364 7.515-7.515v-413.215c0-4.151-3.364-7.515-7.515-7.515h-215.515c-4.15 0-7.515 3.364-7.515 7.515s3.365 7.515 7.515 7.515h208.001v398.186h-303.549v-63.603h8.486c4.15 0 7.515-3.364 7.515-7.515v-72.623c0-4.151-3.365-7.515-7.515-7.515h-8.486v-95.675h8.486c4.15 0 7.515-3.364 7.515-7.515v-72.623c0-4.151-3.365-7.515-7.515-7.515h-8.486v-63.602h65.489c4.15 0 7.515-3.364 7.515-7.515s-3.365-7.515-7.515-7.515h-73.003c-4.15 0-7.515 3.364-7.515 7.515v71.117h-8.486c-4.15 0-7.515 3.364-7.515 7.515v72.623c0 4.151 3.364 7.515 7.515 7.515h8.486v95.675h-8.486c-4.15 0-7.515 3.364-7.515 7.515v72.623c0 4.151 3.364 7.515 7.515 7.515h8.486v71.117c0 4.151 3.365 7.515 7.515 7.515zm-8.486-334.583h16.972v57.594h-16.972zm0 183.328h16.972v57.594h-16.972z"/><path d="m275.278 192.066h-10.342l12.116-19.075c2.225-3.504 1.189-8.148-2.314-10.373-3.504-2.225-8.147-1.189-10.372 2.314l-19.449 30.619c-1.47 2.314-1.563 5.246-.243 7.649 1.32 2.402 3.844 3.895 6.586 3.895h10.342l-12.116 19.074c-2.225 3.504-1.189 8.148 2.315 10.373 2.978 1.971 7.968 1.406 10.372-2.314l19.448-30.618c1.47-2.314 1.563-5.246.243-7.649-1.32-2.401-3.844-3.895-6.586-3.895z"/><path d="m356.493 233.613-70.081-117.933c-4.333-7.293-11.984-11.647-20.467-11.647-.001 0 0 0-.001 0-8.482 0-16.134 4.354-20.468 11.647l-70.081 117.933c-4.429 7.453-4.513 16.401-.226 23.935 4.288 7.535 12.023 12.034 20.693 12.034h140.161c8.67 0 16.406-4.499 20.693-12.033 4.29-7.534 4.206-16.483-.223-23.936zm-12.837 16.503c-.759 1.335-3.022 4.437-7.63 4.437h-140.161c-4.608 0-6.871-3.103-7.631-4.437-.759-1.334-2.271-4.865.084-8.826l70.081-117.934c2.303-3.876 6.045-4.295 7.547-4.295s5.244.419 7.547 4.295l70.081 117.934c2.353 3.962.841 7.493.082 8.826z"/><path d="m345.641 308.444h-159.063c-4.15 0-7.515 3.364-7.515 7.515s3.365 7.515 7.515 7.515h159.063c4.15 0 7.515-3.364 7.515-7.515s-3.365-7.515-7.515-7.515z"/><path d="m345.641 351.22h-159.063c-4.15 0-7.515 3.364-7.515 7.515s3.365 7.515 7.515 7.515h159.063c4.15 0 7.515-3.364 7.515-7.515s-3.365-7.515-7.515-7.515z"/><path d="m345.641 393.995h-99.488c-4.15 0-7.515 3.364-7.515 7.515s3.364 7.515 7.515 7.515h99.488c4.15 0 7.515-3.364 7.515-7.515s-3.365-7.515-7.515-7.515z"/><path d="m186.578 393.995c-4.15 0-7.515 3.364-7.515 7.515s3.365 7.515 7.515 7.515h29.516c4.15 0 7.515-3.364 7.515-7.515s-3.365-7.515-7.515-7.515z"/></g></g></svg>