<svg width="64" height="64" viewBox="0 0 64 64" fill="none" xmlns="http://www.w3.org/2000/svg">
<path d="M53.6729 7.26998H50.5678V1.07365H44.3578V7.26998H19.5174V1.07365H13.3074V7.26998H10.2023C6.75568 7.26998 4.02324 10.0583 4.02324 13.4663L3.99219 56.8406C3.99219 58.4839 4.64646 60.06 5.81109 61.2221C6.9757 62.384 8.55526 63.0369 10.2023 63.0369H53.6729C57.0885 63.0369 59.883 60.2486 59.883 56.8406V13.4663C59.883 10.0583 57.0885 7.26998 53.6729 7.26998ZM53.6729 56.8406H10.2023V25.859H53.6729V56.8406ZM22.6224 38.2515H16.4124V32.0553H22.6224V38.2515ZM35.0427 38.2515H28.8325V32.0553H35.0427V38.2515ZM47.4628 38.2515H41.2528V32.0553H47.4628V38.2515ZM22.6224 50.6442H16.4124V44.4479H22.6224V50.6442ZM35.0427 50.6442H28.8325V44.4479H35.0427V50.6442ZM47.4628 50.6442H41.2528V44.4479H47.4628V50.6442Z" fill="#EF4444"/>
</svg>
