<?xml version="1.0" encoding="UTF-8" standalone="no"?>
<!-- Created with Inkscape (http://www.inkscape.org/) -->

<svg
   version="1.1"
   id="svg3816"
   xml:space="preserve"
   width="682.66669"
   height="682.66669"
   viewBox="0 0 682.66669 682.66669"
   xmlns="http://www.w3.org/2000/svg"
   xmlns:svg="http://www.w3.org/2000/svg"><defs
     id="defs3820"><clipPath
       clipPathUnits="userSpaceOnUse"
       id="clipPath3830"><path
         d="M 0,512 H 512 V 0 H 0 Z"
         id="path3828" /></clipPath></defs><g
     id="g3822"
     transform="matrix(1.3333333,0,0,-1.3333333,0,682.66667)"><g
       id="g3824"><g
         id="g3826"
         clip-path="url(#clipPath3830)"><g
           id="g3832"
           transform="translate(62.752,423.2959)"><path
             d="m 0,0 v -35.259 -168.188 c 0,-9.467 7.738,-17.205 17.178,-17.205 h 272.857 l 69.447,-52.463 34.724,-26.218 v 78.681 h 27.836 c 9.439,0 17.206,7.738 17.206,17.205 V 0 c 0,9.467 -7.738,17.204 -17.206,17.204 H 17.178 C 7.738,17.204 0,9.467 0,0"
             style="fill:#dfedff;fill-opacity:1;fill-rule:evenodd;stroke:none"
             id="path3834" /></g><g
           id="g3836"
           transform="translate(10,370.8604)"><path
             d="m 0,0 v -203.476 c 0,-9.466 7.738,-17.204 17.206,-17.204 h 27.836 v -78.68 l 104.143,78.68 h 263.049 l -69.447,52.463 H 69.93 c -9.44,0 -17.178,7.738 -17.178,17.205 V 17.177 H 17.206 C 7.738,17.177 0,9.438 0,0"
             style="fill:#a0c8ff;fill-opacity:1;fill-rule:evenodd;stroke:none"
             id="path3838" /></g><g
           id="g3840"
           transform="translate(422.2344,150.1807)"><path
             d="M 0,0 H -263.05 L -367.192,-78.681 V 0 h -27.836 c -9.468,0 -17.206,7.737 -17.206,17.204 V 220.68 c 0,9.438 7.738,17.176 17.206,17.176 h 35.546"
             style="fill:none;stroke:#000000;stroke-width:20.148;stroke-linecap:round;stroke-linejoin:round;stroke-miterlimit:10;stroke-dasharray:none;stroke-opacity:1"
             id="path3842" /></g><g
           id="g3844"
           transform="translate(238.7803,202.6436)"><path
             d="M 0,0 H 114.007 L 218.178,-78.681 V 0 h 27.836 c 9.439,0 17.206,7.738 17.206,17.205 v 203.447 c 0,9.467 -7.739,17.204 -17.206,17.204 h -404.865 c -9.439,0 -17.177,-7.737 -17.177,-17.204 V 17.205 C -176.028,7.767 -168.29,0 -158.851,0 H -89.8"
             style="fill:none;stroke:#000000;stroke-width:20.148;stroke-linecap:round;stroke-linejoin:round;stroke-miterlimit:10;stroke-dasharray:none;stroke-opacity:1"
             id="path3846" /></g><g
           id="g3848"
           transform="translate(305.4775,265.8496)"><path
             d="M 0,0 -48.244,114.421"
             style="fill:none;stroke:#000000;stroke-width:20.148;stroke-linecap:round;stroke-linejoin:round;stroke-miterlimit:10;stroke-dasharray:none;stroke-opacity:1"
             id="path3850" /></g><g
           id="g3852"
           transform="translate(208.96,265.8496)"><path
             d="M 0,0 48.273,114.421"
             style="fill:none;stroke:#000000;stroke-width:20.148;stroke-linecap:round;stroke-linejoin:round;stroke-miterlimit:10;stroke-dasharray:none;stroke-opacity:1"
             id="path3854" /></g><g
           id="g3856"
           transform="translate(288.2998,306.6348)"><path
             d="M 0,0 H -62.134"
             style="fill:none;stroke:#000000;stroke-width:20.148;stroke-linecap:round;stroke-linejoin:round;stroke-miterlimit:10;stroke-dasharray:none;stroke-opacity:1"
             id="path3858" /></g><g
           id="g3860"
           transform="translate(387.5273,388.0371)"><path
             d="m 0,0 c 27.892,0 50.499,-25.875 50.499,-57.797 0,-31.923 -22.607,-57.829 -50.499,-57.829 -27.893,0 -50.527,25.906 -50.527,57.829 C -50.527,-25.875 -27.893,0 0,0 Z"
             style="fill:none;stroke:#000000;stroke-width:20.148;stroke-linecap:round;stroke-linejoin:round;stroke-miterlimit:10;stroke-dasharray:none;stroke-opacity:1"
             id="path3862" /></g><g
           id="g3864"
           transform="translate(396.5957,313.5605)"><path
             d="M 0,0 51.071,-50.688"
             style="fill:none;stroke:#000000;stroke-width:20.148;stroke-linecap:round;stroke-linejoin:round;stroke-miterlimit:10;stroke-dasharray:none;stroke-opacity:1"
             id="path3866" /></g><g
           id="g3868"
           transform="translate(120.6904,380.2705)"><path
             d="M 0,0 H 64.147"
             style="fill:none;stroke:#000000;stroke-width:20.148;stroke-linecap:round;stroke-linejoin:round;stroke-miterlimit:10;stroke-dasharray:none;stroke-opacity:1"
             id="path3870" /></g><g
           id="g3872"
           transform="translate(120.6904,262.873)"><path
             d="M 0,0 V 117.397"
             style="fill:none;stroke:#000000;stroke-width:20.148;stroke-linecap:round;stroke-linejoin:round;stroke-miterlimit:10;stroke-dasharray:none;stroke-opacity:1"
             id="path3874" /></g><g
           id="g3876"
           transform="translate(120.6904,327.8643)"><path
             d="M 0,0 H 64.147"
             style="fill:none;stroke:#000000;stroke-width:20.148;stroke-linecap:round;stroke-linejoin:round;stroke-miterlimit:10;stroke-dasharray:none;stroke-opacity:1"
             id="path3878" /></g><g
           id="g3880"
           transform="translate(193.9082,202.6436)"><path
             d="M 0,0 H -0.028"
             style="fill:none;stroke:#000000;stroke-width:20.148;stroke-linecap:round;stroke-linejoin:round;stroke-miterlimit:10;stroke-dasharray:none;stroke-opacity:1"
             id="path3882" /></g></g></g></g></svg>
