<svg width="24" height="26" viewBox="0 0 24 26" fill="none" xmlns="http://www.w3.org/2000/svg">
<mask id="mask0_220_589" style="mask-type:luminance" maskUnits="userSpaceOnUse" x="0" y="0" width="24" height="25">
<path d="M24 0.990723H0V24.9907H24V0.990723Z" fill="white"/>
</mask>
<g mask="url(#mask0_220_589)">
<path d="M18.9939 1.04761H5.00616C2.24572 1.04761 0 3.29333 0 6.05372V19.928C0 22.6883 2.24572 24.9341 5.00616 24.9341H18.9939C21.7543 24.9341 24 22.6884 24 19.928V6.05372C24 3.29333 21.7543 1.04761 18.9939 1.04761ZM22.1662 19.928C22.1662 21.6772 20.7431 23.1002 18.9938 23.1002H5.00616C3.2569 23.1002 1.83384 21.6772 1.83384 19.928V6.05372C1.83384 4.30451 3.2569 2.88145 5.00616 2.88145H18.9939C20.7431 2.88145 22.1662 4.30451 22.1662 6.05372V19.928H22.1662Z" fill="#EF4444"/>
<path fill-rule="evenodd" clip-rule="evenodd" d="M18.9937 23.1001C20.743 23.1001 22.1661 21.6771 22.1661 19.9279H22.1661V6.05362C22.1661 4.30441 20.743 2.88135 18.9938 2.88135H5.00606C3.2568 2.88135 1.83374 4.30441 1.83374 6.05362V19.9279C1.83374 21.6771 3.2568 23.1001 5.00606 23.1001H18.9937ZM19.0849 8.17022V9.15539V9.15759V17.8112C19.0849 18.3176 18.6743 18.7282 18.1679 18.7282H5.83185C5.32551 18.7282 4.91498 18.3176 4.91498 17.8112V8.17022C4.91498 7.66383 5.32551 7.25329 5.83185 7.25329H18.1679C18.6743 7.25329 19.0849 7.66383 19.0849 8.17022ZM16.4472 9.08714L12.0048 11.5877L7.65773 9.08714H16.4472ZM6.74878 16.8943V10.6799L11.5427 13.4375C11.6842 13.5189 11.842 13.5596 11.9999 13.5596C12.1549 13.5596 12.31 13.5203 12.4496 13.4417L17.2509 10.7391V16.8943L6.74878 16.8943Z" fill="#EF4444"/>
</g>
</svg>
